<svg xmlns="http://www.w3.org/2000/svg" viewBox="0 0 500 500"><g id="freepik--background-complete--inject-74"><rect x="416.78" y="398.49" width="33.12" height="0.25" style="fill:#ebebeb"></rect><rect x="322.53" y="401.21" width="8.69" height="0.25" style="fill:#ebebeb"></rect><rect x="396.59" y="389.21" width="19.19" height="0.25" style="fill:#ebebeb"></rect><rect x="52.46" y="390.89" width="43.19" height="0.25" style="fill:#ebebeb"></rect><rect x="104.56" y="390.89" width="6.33" height="0.25" style="fill:#ebebeb"></rect><rect x="131.47" y="395.11" width="93.68" height="0.25" style="fill:#ebebeb"></rect><path d="M238.4,337.8H45.3a5.71,5.71,0,0,1-5.71-5.71V60.66A5.71,5.71,0,0,1,45.3,55H238.4a5.71,5.71,0,0,1,5.71,5.71V332.09A5.71,5.71,0,0,1,238.4,337.8ZM45.3,55.2a5.47,5.47,0,0,0-5.46,5.46V332.09a5.47,5.47,0,0,0,5.46,5.46H238.4a5.47,5.47,0,0,0,5.46-5.46V60.66a5.47,5.47,0,0,0-5.46-5.46Z" style="fill:#ebebeb"></path><path d="M454.7,337.8H261.6a5.71,5.71,0,0,1-5.71-5.71V60.66A5.71,5.71,0,0,1,261.6,55H454.7a5.71,5.71,0,0,1,5.71,5.71V332.09A5.71,5.71,0,0,1,454.7,337.8ZM261.6,55.2a5.47,5.47,0,0,0-5.46,5.46V332.09a5.47,5.47,0,0,0,5.46,5.46H454.7a5.47,5.47,0,0,0,5.46-5.46V60.66a5.47,5.47,0,0,0-5.46-5.46Z" style="fill:#ebebeb"></path><path d="M95.13,167.73a4.77,4.77,0,0,0,3.69,1.62l17-.33,1.59.68a31.48,31.48,0,0,0,27.19-1.23h0l15-.29a4.69,4.69,0,0,0,2-.5c3.34-1.68,13.5-7.88,11.63-20.39C172,138,162.67,139.5,155.9,142a4.8,4.8,0,0,1-6.36-4.25c-.41-5.29-3.55-10.8-16.21-7.12a32.17,32.17,0,0,0-22.79,23.11,4.77,4.77,0,0,1-5,3.54C98.56,156.76,86,157.17,95.13,167.73Z" style="fill:#f5f5f5"></path><path d="M337.21,161.1l24.77-.19a4.85,4.85,0,0,1,2.54.73h0c8.47,7.56,17.15,3.24,20.94.63a8.84,8.84,0,0,1,5-1.57l27.61-.21c10.36-.08,11.48-14.74,1.37-18.1l-.39-.13c10-9.18-15.58-28.19-38.87-1.43,1.18-8.87-21.45-5.5-27.32,6.65C349.61,139.56,329.05,153.51,337.21,161.1Z" style="fill:#f5f5f5"></path><polygon points="326.52 184.92 330.02 186.83 326.52 188.75 324.6 192.25 322.69 188.75 319.19 186.83 322.69 184.92 324.6 181.42 326.52 184.92" style="fill:#f0f0f0"></polygon><polygon points="339.77 180.11 341.52 181.06 339.77 182.02 338.81 183.76 337.86 182.02 336.11 181.06 337.86 180.11 338.81 178.36 339.77 180.11" style="fill:#ebebeb"></polygon><polygon points="76.21 103.95 79.71 105.86 76.21 107.77 74.3 111.27 72.38 107.77 68.88 105.86 72.38 103.95 74.3 100.45 76.21 103.95" style="fill:#f0f0f0"></polygon><polygon points="89.46 99.14 91.21 100.09 89.46 101.05 88.5 102.79 87.55 101.05 85.8 100.09 87.55 99.14 88.5 97.39 89.46 99.14" style="fill:#ebebeb"></polygon><polygon points="420.88 77.02 420.15 80.94 417.24 78.2 413.32 77.47 416.05 74.56 416.79 70.64 419.69 73.38 423.61 74.11 420.88 77.02" style="fill:#f0f0f0"></polygon><polygon points="429.57 88.12 429.2 90.07 427.75 88.71 425.79 88.34 427.16 86.89 427.52 84.94 428.97 86.3 430.93 86.67 429.57 88.12" style="fill:#ebebeb"></polygon><polygon points="236.27 69.53 235.47 73.44 232.61 70.65 228.7 69.85 231.48 67 232.28 63.09 235.14 65.87 239.05 66.67 236.27 69.53" style="fill:#f0f0f0"></polygon><polygon points="244.76 80.78 244.37 82.73 242.94 81.34 240.99 80.94 242.38 79.51 242.78 77.56 244.2 78.95 246.15 79.35 244.76 80.78" style="fill:#ebebeb"></polygon><polygon points="171.74 127.39 173.92 128.58 171.74 129.77 170.55 131.95 169.37 129.77 167.19 128.58 169.37 127.39 170.55 125.22 171.74 127.39" style="fill:#f0f0f0"></polygon><polygon points="219.04 182.67 221.22 183.86 219.04 185.04 217.86 187.22 216.67 185.04 214.49 183.86 216.67 182.67 217.86 180.5 219.04 182.67" style="fill:#f0f0f0"></polygon><polygon points="141.98 82.26 144.16 83.45 141.98 84.64 140.79 86.81 139.6 84.64 137.43 83.45 139.6 82.26 140.79 80.09 141.98 82.26" style="fill:#f0f0f0"></polygon><polygon points="219.75 238.02 221.93 239.2 219.75 240.39 218.56 242.57 217.38 240.39 215.2 239.2 217.38 238.02 218.56 235.84 219.75 238.02" style="fill:#f0f0f0"></polygon><polygon points="200.83 381.74 187.75 381.74 198.51 353.39 204.02 353.39 200.83 381.74" style="fill:#e0e0e0"></polygon><polygon points="238.41 360.31 226.86 359.39 220.73 365.74 215.61 360.48 205.52 366.96 195.34 361.54 180.28 366.96 173.29 359.6 160.62 359.51 166.39 352.13 217.91 286.18 236.27 352.58 238.41 360.31" style="fill:#f0f0f0"></polygon><polygon points="236.27 352.58 228.68 351.98 222.55 358.32 217.44 353.06 207.34 359.55 197.17 354.13 182.1 359.55 175.11 352.19 166.39 352.13 217.91 286.18 236.27 352.58" style="fill:#e0e0e0"></polygon><path d="M234.72,340.33a1.83,1.83,0,0,1-.66,1.76c-1.51,1.18-3,2.47-4.5,3.63-3.14,2.45-6.75,4.49-9.58,3.58-3.3-1.05-4.77-5.89-8.4-6-3.41-.08-7,4-10.58,5.93-4.66,2.51-9.65,1.14-11.3-3.52-2.72-7.72-14.7-2.83-17.36-1.41l0,0c-1,.52-1.46-.87-.65-1.9l47-60.09Z" style="fill:#fafafa;opacity:0.8"></path><polygon points="239.19 332.11 229.53 331.25 224.22 337.24 220.06 332.27 211.44 338.4 203.05 333.28 190.28 338.4 184.61 331.43 173.99 331.36 180.19 322.74 223.95 262.01 237.23 323.1 239.19 332.11" style="fill:#f0f0f0"></polygon><polygon points="237.23 323.1 231.66 322.6 226.35 328.59 222.19 323.63 213.56 329.75 205.17 324.63 192.4 329.75 186.74 322.79 180.19 322.74 223.95 262.01 237.23 323.1" style="fill:#e0e0e0"></polygon><path d="M234.78,306a1.91,1.91,0,0,1-1.36,2.16h0c-3.47.41-7.09,2.56-10.61,4.54s-7.23,3.86-10.56,3.69c-4.07-.21-7-3.44-10.88-4.19-3.21-.61-6.89.5-10.2.21a7.73,7.73,0,0,1-2.68-.72c-.57-.28-.57-1.33,0-2.11l36.19-50.22Z" style="fill:#fafafa;opacity:0.8"></path><path d="M195.6,317.6l2.84-1.07a1.33,1.33,0,0,1,1.58.34l1.08,1.32c.89,1.09.23,3.43-1.23,4.36l-3.72,2.37a1.45,1.45,0,0,1-2.39-1.22l-.2-2.61A3.68,3.68,0,0,1,195.6,317.6Z" style="fill:#fafafa"></path><path d="M231.8,313.3a13.74,13.74,0,0,0-6.19,6.11c.27,1.78.9,3.23,2.35,3.4,1.27-1.28,2.58-1.87,3.84-3.15.87,0,1.9.33,2.78.29.56-1.42,1.25-2.8,1.82-4.22a8.86,8.86,0,0,0-1-3.64A35.74,35.74,0,0,0,231.8,313.3Z" style="fill:#fafafa"></path><path d="M186,314.71h0a9.58,9.58,0,0,0-4.64,6.21l-.08.34S186.35,318.13,186,314.71Z" style="fill:#fafafa"></path><polygon points="237.78 296.69 232.38 294.84 228.04 299.91 224.93 295.76 218.16 300.89 211.97 296.69 202.5 300.89 198.54 295.3 192.69 295.3 197.09 288.3 229.37 237.13 236.65 288.71 237.78 296.69" style="fill:#f0f0f0"></polygon><polygon points="236.65 288.71 234.11 287.83 229.76 292.92 226.65 288.76 219.88 293.89 213.69 289.69 204.22 293.89 200.26 288.3 197.09 288.3 229.37 237.13 236.65 288.71" style="fill:#e0e0e0"></polygon><path d="M235.55,270.22c.29,2.09-1.41,4.63-3.18,4.7-.66,0-1.33.08-2,.13-2.06.13-4.18.12-5.71-1.09s-2.67-3.56-4.78-2.75c-1.68.66-3,3.05-4.62,4.14-2.15,1.44-4.16.24-5.58-1.23a20.9,20.9,0,0,1-1.67-1.95c-.71-.93-.56-2.66.32-4.05l22-34.89Z" style="fill:#f5f5f5"></path><path d="M199.91,282.09c-.36,1.36-.34,3,.62,3.18.57.1,1.25-.39,1.84-.92,1.82-1.65,7-8,4.32-9.65C204.3,273.17,200.64,279.36,199.91,282.09Z" style="fill:#fafafa"></path><path d="M223.07,281.3a10.39,10.39,0,0,0-.79-2.36c-3.59-6.08-6.68,5.88-6.24,7.13.29.82.83,1.67,1.66,1.28a2.4,2.4,0,0,0,.7-.56c.64-.68,1.62-.94,2.08-.45a1.44,1.44,0,0,0,1.94-.07,3,3,0,0,0,1-2.18A12.41,12.41,0,0,0,223.07,281.3Z" style="fill:#fafafa"></path><path d="M235.78,278.69c-.62-.87-2-.37-2.67,1a3.81,3.81,0,0,0,0,3.17,5,5,0,0,0,1.8,1.86.63.63,0,0,0,.29.1c.64.05,1.36-.75,1.52-1.63A6,6,0,0,0,235.78,278.69Z" style="fill:#fafafa"></path><path d="M226.52,280.4c-.39-.53-1.25-.22-1.64.62a2.34,2.34,0,0,0,0,1.94,3.09,3.09,0,0,0,1.1,1.14.43.43,0,0,0,.18.06c.39,0,.83-.46.94-1A3.79,3.79,0,0,0,226.52,280.4Z" style="fill:#fafafa"></path><path d="M231,351.71c-.11-.78-.88-.94-1.47-.28a3,3,0,0,0-.69,2,5,5,0,0,0,.45,1.82.4.4,0,0,0,.12.16c.29.26.8,0,1.06-.51A5.72,5.72,0,0,0,231,351.71Z" style="fill:#fafafa"></path><path d="M177.17,349.26a46.24,46.24,0,0,1,5,0,1.85,1.85,0,0,1,1.72,1.37h0a5.11,5.11,0,0,1-1.66,5l-1,.87a2.54,2.54,0,0,1-2.13.71l-3.79-.8a1.78,1.78,0,0,1-1.29-1.25h0a4.84,4.84,0,0,1,1.88-5Z" style="fill:#fafafa"></path><path d="M209.14,350.48l-2.42,1.37a3.88,3.88,0,0,0-1.7,4.22l.45,1.18,3,2.79c1,.94,2.63.66,4-.68l.65-.66c2.39-2.54,2.7-6.68.62-8A4.25,4.25,0,0,0,209.14,350.48Z" style="fill:#fafafa"></path><path d="M234.14,346.88a5.15,5.15,0,0,0-.87,5.08,5.69,5.69,0,0,0,3,2.58c1.38-1.64,2.25-2.13,1.86-3.92S235.78,346.42,234.14,346.88Z" style="fill:#fafafa"></path><polygon points="140.06 381.74 132.5 381.74 138.71 365.36 141.9 365.36 140.06 381.74" style="fill:#e0e0e0"></polygon><polygon points="161.77 369.36 155.09 368.83 151.55 372.49 148.6 369.45 142.76 373.2 136.89 370.07 128.18 373.2 124.14 368.95 116.82 368.9 120.16 364.63 149.92 326.53 160.53 364.89 161.77 369.36" style="fill:#f0f0f0"></polygon><polygon points="160.53 364.89 156.15 364.55 152.61 368.21 149.65 365.17 143.82 368.92 137.94 365.79 129.23 368.92 125.2 364.66 120.16 364.63 149.92 326.53 160.53 364.89" style="fill:#e0e0e0"></polygon><path d="M159.64,357.82a1,1,0,0,1-.39,1c-.87.68-1.73,1.43-2.59,2.1-1.82,1.41-3.9,2.59-5.54,2.07-1.91-.61-2.76-3.41-4.85-3.46s-4.05,2.3-6.12,3.42c-2.69,1.46-5.57.66-6.52-2-1.58-4.46-8.5-1.64-10-.82h0c-.57.31-.84-.5-.38-1.09l27.15-34.72Z" style="fill:#fafafa;opacity:0.8"></path><polygon points="162.22 353.06 156.64 352.57 153.57 356.03 151.17 353.16 146.18 356.7 141.34 353.74 133.96 356.7 130.69 352.68 124.55 352.63 128.13 347.65 153.41 312.56 161.09 347.86 162.22 353.06" style="fill:#f0f0f0"></polygon><polygon points="161.09 347.86 157.87 347.57 154.8 351.04 152.4 348.17 147.41 351.7 142.56 348.75 135.19 351.7 131.91 347.68 128.13 347.65 153.41 312.56 161.09 347.86" style="fill:#e0e0e0"></polygon><path d="M159.67,338a1.11,1.11,0,0,1-.79,1.26h0c-2,.23-4.09,1.47-6.13,2.61s-4.17,2.24-6.1,2.14c-2.35-.12-4-2-6.29-2.42-1.85-.35-4,.28-5.89.12a4.36,4.36,0,0,1-1.54-.42c-.34-.16-.34-.77,0-1.21l20.9-29Z" style="fill:#fafafa;opacity:0.8"></path><path d="M137,344.68l1.64-.62a.78.78,0,0,1,.91.2l.62.77a2,2,0,0,1-.71,2.51l-2.15,1.37a.84.84,0,0,1-1.38-.7l-.11-1.51A2.12,2.12,0,0,1,137,344.68Z" style="fill:#fafafa"></path><path d="M158,342.2a8,8,0,0,0-3.58,3.53c.16,1,.52,1.87,1.36,2,.73-.74,1.49-1.08,2.22-1.82.5,0,1.1.19,1.6.17.33-.82.73-1.62,1.06-2.44a5.22,5.22,0,0,0-.6-2.1A18.53,18.53,0,0,0,158,342.2Z" style="fill:#fafafa"></path><path d="M131.47,343h0a5.55,5.55,0,0,0-2.67,3.59l-.05.19S131.69,345,131.47,343Z" style="fill:#fafafa"></path><polygon points="161.41 332.6 158.29 331.53 155.78 334.46 153.98 332.07 150.07 335.03 146.49 332.6 141.02 335.03 138.73 331.8 135.35 331.8 137.9 327.75 156.54 298.19 160.75 327.99 161.41 332.6" style="fill:#f0f0f0"></polygon><polygon points="160.75 327.99 159.28 327.48 156.77 330.42 154.97 328.02 151.06 330.99 147.49 328.56 142.02 330.99 139.73 327.75 137.9 327.75 156.54 298.19 160.75 327.99" style="fill:#e0e0e0"></polygon><path d="M160.11,317.31c.18,1.21-.81,2.67-1.83,2.71l-1.16.08a4.74,4.74,0,0,1-3.29-.63c-.87-.69-1.55-2.06-2.77-1.59-1,.38-1.72,1.76-2.67,2.39-1.24.83-2.4.14-3.22-.71a13.37,13.37,0,0,1-1-1.13,2.22,2.22,0,0,1,.19-2.34l12.71-20.15Z" style="fill:#f5f5f5"></path><path d="M139.53,324.17c-.21.78-.2,1.74.35,1.83.33.06.73-.22,1.06-.53,1.06-1,4-4.59,2.5-5.57C142.06,319,140,322.59,139.53,324.17Z" style="fill:#fafafa"></path><path d="M152.9,323.71a5.57,5.57,0,0,0-.45-1.36c-2.08-3.52-3.86,3.39-3.6,4.11.16.48.47,1,1,.75a1.39,1.39,0,0,0,.41-.33c.37-.39.93-.54,1.2-.26a.83.83,0,0,0,1.12,0,1.76,1.76,0,0,0,.56-1.26A6.9,6.9,0,0,0,152.9,323.71Z" style="fill:#fafafa"></path><path d="M160.25,322.2c-.36-.5-1.17-.21-1.54.58a2.19,2.19,0,0,0,0,1.84,2.89,2.89,0,0,0,1,1.07.35.35,0,0,0,.17.06c.37,0,.78-.43.88-.94A3.55,3.55,0,0,0,160.25,322.2Z" style="fill:#fafafa"></path><path d="M154.9,323.19c-.22-.31-.72-.13-1,.36a1.36,1.36,0,0,0,0,1.12,1.84,1.84,0,0,0,.64.66.17.17,0,0,0,.1,0c.23,0,.48-.26.54-.57A2.2,2.2,0,0,0,154.9,323.19Z" style="fill:#fafafa"></path><path d="M157.49,364.39c-.07-.45-.51-.54-.85-.16a1.75,1.75,0,0,0-.4,1.17,2.9,2.9,0,0,0,.26,1.05.22.22,0,0,0,.07.09c.16.15.46,0,.61-.3A3.28,3.28,0,0,0,157.49,364.39Z" style="fill:#fafafa"></path><path d="M126.39,363a27.49,27.49,0,0,1,2.86,0,1.06,1.06,0,0,1,1,.79h0a3,3,0,0,1-1,2.92l-.59.5a1.48,1.48,0,0,1-1.23.41l-2.19-.46a1,1,0,0,1-.74-.73h0a2.78,2.78,0,0,1,1.08-2.88Z" style="fill:#fafafa"></path><path d="M144.86,363.68l-1.4.79a2.23,2.23,0,0,0-1,2.44l.26.68,1.73,1.61c.58.54,1.52.38,2.29-.39l.38-.38c1.38-1.47,1.56-3.86.36-4.61A2.45,2.45,0,0,0,144.86,363.68Z" style="fill:#fafafa"></path><path d="M159.3,361.6a3,3,0,0,0-.5,2.93,3.3,3.3,0,0,0,1.74,1.5c.8-.95,1.3-1.24,1.07-2.27S160.25,361.34,159.3,361.6Z" style="fill:#fafafa"></path><polygon points="82.41 381.74 70.19 381.74 80.24 355.26 85.38 355.26 82.41 381.74" style="fill:#e0e0e0"></polygon><polygon points="117.52 361.72 106.72 360.86 101 366.79 96.22 361.88 86.79 367.94 77.28 362.87 63.2 367.94 56.67 361.06 44.84 360.97 50.23 354.07 98.36 292.46 115.51 354.5 117.52 361.72" style="fill:#f0f0f0"></polygon><polygon points="115.51 354.5 108.43 353.94 102.7 359.86 97.92 354.95 88.49 361.01 78.98 355.94 64.91 361.01 58.38 354.13 50.23 354.07 98.36 292.46 115.51 354.5" style="fill:#e0e0e0"></polygon><path d="M114.07,343.06a1.69,1.69,0,0,1-.62,1.64c-1.41,1.1-2.8,2.3-4.2,3.39-2.93,2.29-6.31,4.19-9,3.35-3.09-1-4.46-5.51-7.85-5.6-3.18-.08-6.54,3.73-9.89,5.54-4.35,2.35-9,1.07-10.55-3.29-2.54-7.21-13.74-2.65-16.22-1.32l0,0c-.93.48-1.37-.81-.62-1.78L99,288.88Z" style="fill:#fafafa;opacity:0.8"></path><polygon points="118.24 335.37 109.22 334.57 104.26 340.17 100.37 335.53 92.31 341.25 84.48 336.46 72.55 341.25 67.25 334.74 57.33 334.67 63.13 326.62 104 269.89 116.41 326.96 118.24 335.37" style="fill:#f0f0f0"></polygon><polygon points="116.41 326.96 111.2 326.49 106.25 332.09 102.36 327.45 94.3 333.18 86.46 328.39 74.53 333.18 69.24 326.67 63.13 326.62 104 269.89 116.41 326.96" style="fill:#e0e0e0"></polygon><path d="M114.12,311a1.79,1.79,0,0,1-1.27,2h0c-3.24.39-6.62,2.39-9.91,4.24s-6.75,3.61-9.87,3.45c-3.8-.19-6.52-3.21-10.16-3.91-3-.58-6.44.46-9.53.19a7,7,0,0,1-2.5-.67c-.54-.26-.54-1.25,0-2l33.81-46.92Z" style="fill:#fafafa;opacity:0.8"></path><path d="M77.52,321.82l2.66-1a1.24,1.24,0,0,1,1.47.32l1,1.23c.83,1,.21,3.21-1.15,4.07L78,328.66a1.36,1.36,0,0,1-2.23-1.14l-.19-2.44A3.46,3.46,0,0,1,77.52,321.82Z" style="fill:#fafafa"></path><path d="M111.34,317.81a12.79,12.79,0,0,0-5.78,5.7c.25,1.66.84,3,2.2,3.18,1.18-1.2,2.4-1.75,3.58-2.95.81,0,1.78.31,2.59.27.53-1.32,1.18-2.61,1.71-3.93a8.46,8.46,0,0,0-1-3.41A29.8,29.8,0,0,0,111.34,317.81Z" style="fill:#fafafa"></path><path d="M68.53,319.12h0a8.92,8.92,0,0,0-4.33,5.8l-.07.31S68.88,322.32,68.53,319.12Z" style="fill:#fafafa"></path><polygon points="116.93 302.29 111.88 300.56 107.83 305.3 104.92 301.42 98.6 306.21 92.81 302.29 83.97 306.21 80.27 300.98 74.8 300.98 78.92 294.45 109.06 246.64 115.87 294.83 116.93 302.29" style="fill:#f0f0f0"></polygon><polygon points="115.87 294.83 113.49 294.01 109.44 298.76 106.53 294.88 100.21 299.67 94.42 295.74 85.58 299.67 81.87 294.45 78.92 294.45 109.06 246.64 115.87 294.83" style="fill:#e0e0e0"></polygon><path d="M114.84,277.56c.28,1.95-1.32,4.32-3,4.39l-1.87.12c-1.92.12-3.9.11-5.33-1s-2.5-3.33-4.47-2.56c-1.56.61-2.78,2.84-4.31,3.86-2,1.34-3.89.22-5.22-1.15a23,23,0,0,1-1.56-1.82c-.66-.87-.52-2.49.3-3.79L110,243Z" style="fill:#f5f5f5"></path><path d="M81.55,288.65c-.34,1.26-.32,2.81.58,3,.53.09,1.17-.37,1.71-.87,1.71-1.53,6.5-7.42,4-9C85.65,280.31,82.23,286.1,81.55,288.65Z" style="fill:#fafafa"></path><path d="M103.18,287.9a10.06,10.06,0,0,0-.73-2.19c-3.36-5.69-6.24,5.48-5.83,6.65.27.77.77,1.56,1.54,1.2a2,2,0,0,0,.66-.53c.6-.63,1.51-.87,1.94-.41a1.35,1.35,0,0,0,1.81-.07,2.85,2.85,0,0,0,.91-2A10.92,10.92,0,0,0,103.18,287.9Z" style="fill:#fafafa"></path><path d="M115.06,285.47c-.58-.82-1.9-.34-2.49.94a3.58,3.58,0,0,0,0,3,4.76,4.76,0,0,0,1.69,1.73.52.52,0,0,0,.27.1c.59,0,1.27-.71,1.42-1.52A5.68,5.68,0,0,0,115.06,285.47Z" style="fill:#fafafa"></path><path d="M106.4,287.07c-.35-.5-1.16-.21-1.52.57a2.18,2.18,0,0,0,0,1.82,2.86,2.86,0,0,0,1,1.06.31.31,0,0,0,.16.06c.37,0,.78-.43.87-.93A3.42,3.42,0,0,0,106.4,287.07Z" style="fill:#fafafa"></path><path d="M110.59,353.69c-.1-.73-.82-.88-1.37-.27a2.9,2.9,0,0,0-.65,1.89A4.58,4.58,0,0,0,109,357a.28.28,0,0,0,.1.15c.27.24.75,0,1-.48A5.29,5.29,0,0,0,110.59,353.69Z" style="fill:#fafafa"></path><path d="M60.31,351.39c.36-.11,3-.06,4.63,0a1.73,1.73,0,0,1,1.6,1.28h0A4.75,4.75,0,0,1,65,357.35l-.94.81a2.39,2.39,0,0,1-2,.67l-3.54-.75a1.67,1.67,0,0,1-1.21-1.18h0a4.51,4.51,0,0,1,1.76-4.65Z" style="fill:#fafafa"></path><path d="M90.17,352.54l-2.26,1.28a3.61,3.61,0,0,0-1.59,3.94l.42,1.1,2.8,2.61c.95.87,2.46.62,3.71-.64l.61-.62c2.24-2.36,2.52-6.24.58-7.45A4,4,0,0,0,90.17,352.54Z" style="fill:#fafafa"></path><path d="M113.53,349.17a4.77,4.77,0,0,0-.81,4.75,5.29,5.29,0,0,0,2.81,2.41c1.29-1.53,2.09-2,1.73-3.66S115.06,348.75,113.53,349.17Z" style="fill:#fafafa"></path><polygon points="273.34 381.74 256.97 381.74 270.43 346.28 277.32 346.28 273.34 381.74" style="fill:#e0e0e0"></polygon><polygon points="320.34 354.94 305.89 353.79 298.22 361.72 291.82 355.14 279.2 363.26 266.47 356.47 247.62 363.26 238.88 354.05 223.03 353.94 230.25 344.7 294.69 262.2 317.66 345.27 320.34 354.94" style="fill:#f0f0f0"></polygon><polygon points="317.66 345.27 308.17 344.51 300.5 352.45 294.11 345.87 281.48 353.98 268.75 347.2 249.91 353.98 241.16 344.77 230.25 344.7 294.69 262.2 317.66 345.27" style="fill:#e0e0e0"></polygon><path d="M315.73,329.94a2.28,2.28,0,0,1-.83,2.2c-1.88,1.47-3.75,3.09-5.63,4.55-3.92,3.06-8.44,5.61-12,4.47-4.14-1.31-6-7.37-10.51-7.49-4.26-.1-8.75,5-13.24,7.42-5.82,3.14-12.06,1.43-14.12-4.4-3.41-9.66-18.4-3.55-21.73-1.77l0,0c-1.24.65-1.83-1.08-.82-2.38L295.6,257.4Z" style="fill:#fafafa;opacity:0.8"></path><polygon points="321.32 319.66 309.23 318.58 302.6 326.07 297.39 319.86 286.6 327.53 276.11 321.12 260.14 327.53 253.05 318.81 239.76 318.72 247.52 307.94 302.25 231.97 318.87 308.39 321.32 319.66" style="fill:#f0f0f0"></polygon><polygon points="318.87 308.39 311.89 307.77 305.26 315.26 300.05 309.05 289.26 316.71 278.77 310.31 262.8 316.71 255.71 308 247.52 307.94 302.25 231.97 318.87 308.39" style="fill:#e0e0e0"></polygon><path d="M315.8,287a2.41,2.41,0,0,1-1.7,2.71h0c-4.33.51-8.86,3.2-13.27,5.67s-9,4.84-13.21,4.62c-5.09-.26-8.74-4.3-13.61-5.24-4-.76-8.62.62-12.76.26a9.42,9.42,0,0,1-3.34-.9c-.72-.35-.72-1.67,0-2.63l45.27-62.83Z" style="fill:#fafafa;opacity:0.8"></path><path d="M266.8,301.52l3.55-1.35a1.65,1.65,0,0,1,2,.43l1.35,1.65c1.11,1.36.28,4.29-1.54,5.45l-4.65,3c-1.47.93-2.85.22-3-1.53l-.25-3.27A4.59,4.59,0,0,1,266.8,301.52Z" style="fill:#fafafa"></path><path d="M312.07,296.14a17.14,17.14,0,0,0-7.74,7.64c.34,2.22,1.13,4,2.95,4.25,1.58-1.61,3.22-2.34,4.79-3.94,1.09-.06,2.39.41,3.48.36.7-1.77,1.57-3.51,2.28-5.27a11.17,11.17,0,0,0-1.29-4.56A41.34,41.34,0,0,0,312.07,296.14Z" style="fill:#fafafa"></path><path d="M254.75,297.9h0a11.92,11.92,0,0,0-5.79,7.77l-.1.41S255.22,302.18,254.75,297.9Z" style="fill:#fafafa"></path><polygon points="319.56 275.36 312.8 273.04 307.38 279.38 303.48 274.2 295.01 280.61 287.26 275.36 275.43 280.61 270.47 273.61 263.15 273.61 268.66 264.86 309.03 200.86 318.14 265.38 319.56 275.36" style="fill:#f0f0f0"></polygon><polygon points="318.14 265.38 314.96 264.28 309.53 270.63 305.63 265.44 297.17 271.86 289.42 266.6 277.58 271.86 272.62 264.86 268.66 264.86 309.03 200.86 318.14 265.38" style="fill:#e0e0e0"></polygon><path d="M316.76,242.25c.37,2.61-1.76,5.78-4,5.88-.83,0-1.67.1-2.5.16-2.58.15-5.23.14-7.14-1.37s-3.35-4.46-6-3.43c-2.1.82-3.72,3.81-5.78,5.17-2.68,1.8-5.2.3-7-1.53a26.25,26.25,0,0,1-2.1-2.45c-.88-1.16-.7-3.32.4-5.06L310.23,196Z" style="fill:#f5f5f5"></path><path d="M272.19,257.1c-.45,1.69-.43,3.77.77,4,.72.13,1.57-.49,2.3-1.15,2.28-2.06,8.7-9.94,5.4-12.07C277.68,245.94,273.1,253.68,272.19,257.1Z" style="fill:#fafafa"></path><path d="M301.15,256.1a12.85,12.85,0,0,0-1-2.94c-4.5-7.62-8.36,7.34-7.8,8.91.36,1,1,2.09,2.06,1.61a3,3,0,0,0,.88-.71c.8-.85,2-1.17,2.61-.55a1.8,1.8,0,0,0,2.42-.1,3.81,3.81,0,0,0,1.21-2.73A15,15,0,0,0,301.15,256.1Z" style="fill:#fafafa"></path><path d="M317.06,252.85c-.79-1.1-2.54-.47-3.34,1.25a4.74,4.74,0,0,0-.05,4,6.3,6.3,0,0,0,2.26,2.32.69.69,0,0,0,.36.13c.8.07,1.7-.94,1.91-2A7.61,7.61,0,0,0,317.06,252.85Z" style="fill:#fafafa"></path><path d="M305.47,255c-.48-.67-1.56-.28-2.05.77a2.94,2.94,0,0,0,0,2.43,4,4,0,0,0,1.38,1.43.48.48,0,0,0,.23.07c.49,0,1-.57,1.16-1.24A4.68,4.68,0,0,0,305.47,255Z" style="fill:#fafafa"></path><path d="M311.07,344.18c-.14-1-1.1-1.18-1.84-.35a3.81,3.81,0,0,0-.86,2.53,6.12,6.12,0,0,0,.57,2.27.43.43,0,0,0,.14.2c.36.32,1,0,1.33-.64A7.06,7.06,0,0,0,311.07,344.18Z" style="fill:#fafafa"></path><path d="M243.74,341.11a58.7,58.7,0,0,1,6.21,0,2.3,2.3,0,0,1,2.14,1.71h0c.67,1.94-.26,4.75-2.07,6.31l-1.26,1.08a3.21,3.21,0,0,1-2.67.89l-4.74-1a2.23,2.23,0,0,1-1.62-1.57h0c-.67-2,.43-4.9,2.35-6.24Z" style="fill:#fafafa"></path><path d="M283.73,342.64l-3,1.72a4.83,4.83,0,0,0-2.12,5.27l.55,1.48,3.76,3.48c1.26,1.18,3.29.83,5-.85l.81-.83c3-3.16,3.38-8.35.78-10A5.33,5.33,0,0,0,283.73,342.64Z" style="fill:#fafafa"></path><path d="M315,338.13a6.4,6.4,0,0,0-1.08,6.36c.77,1.7,2.29,2.5,3.76,3.23,1.73-2.05,2.81-2.67,2.32-4.9S317.05,337.56,315,338.13Z" style="fill:#fafafa"></path><polygon points="351.76 381.74 342.37 381.74 350.09 361.38 354.05 361.38 351.76 381.74" style="fill:#e0e0e0"></polygon><polygon points="378.75 366.35 370.45 365.69 366.05 370.25 362.37 366.47 355.13 371.13 347.82 367.24 337 371.13 331.98 365.84 322.88 365.78 327.02 360.48 364.02 313.12 377.21 360.8 378.75 366.35" style="fill:#f0f0f0"></polygon><polygon points="377.21 360.8 371.76 360.37 367.36 364.92 363.68 361.15 356.43 365.81 349.13 361.91 338.31 365.81 333.29 360.52 327.02 360.48 364.02 313.12 377.21 360.8" style="fill:#e0e0e0"></polygon><path d="M376.1,352a1.33,1.33,0,0,1-.48,1.27c-1.08.84-2.15,1.77-3.23,2.61-2.25,1.75-4.85,3.22-6.88,2.57-2.37-.76-3.43-4.24-6-4.3s-5,2.86-7.6,4.25c-3.35,1.81-6.93.82-8.11-2.52-2-5.55-10.56-2-12.47-1h0c-.71.38-1-.62-.47-1.36l33.74-43.15Z" style="fill:#fafafa;opacity:0.8"></path><polygon points="379.3 346.1 372.37 345.48 368.56 349.78 365.57 346.22 359.37 350.62 353.35 346.94 344.18 350.62 340.11 345.62 332.48 345.56 336.94 339.37 368.36 295.76 377.9 339.63 379.3 346.1" style="fill:#f0f0f0"></polygon><polygon points="377.9 339.63 373.89 339.27 370.08 343.58 367.1 340.01 360.9 344.41 354.88 340.73 345.71 344.41 341.64 339.41 336.94 339.37 368.36 295.76 377.9 339.63" style="fill:#e0e0e0"></polygon><path d="M376.14,327.36a1.38,1.38,0,0,1-1,1.55h0c-2.48.3-5.08,1.84-7.61,3.26s-5.19,2.77-7.59,2.65c-2.92-.15-5-2.47-7.81-3-2.3-.44-4.95.36-7.32.15a5.26,5.26,0,0,1-1.92-.51c-.42-.21-.42-1,0-1.52l26-36.07Z" style="fill:#fafafa;opacity:0.8"></path><path d="M348,335.68l2.05-.77a1,1,0,0,1,1.13.25l.77.95c.64.78.16,2.46-.88,3.13l-2.67,1.7a1,1,0,0,1-1.72-.88l-.14-1.87A2.65,2.65,0,0,1,348,335.68Z" style="fill:#fafafa"></path><path d="M374,332.6a9.87,9.87,0,0,0-4.45,4.38c.2,1.28.65,2.32,1.69,2.44.91-.92,1.85-1.34,2.76-2.26.62,0,1.37.24,2,.21.41-1,.9-2,1.31-3a6.42,6.42,0,0,0-.74-2.62A23.5,23.5,0,0,0,374,332.6Z" style="fill:#fafafa"></path><path d="M341.09,333.61h0a6.84,6.84,0,0,0-3.32,4.46l-.06.24S341.36,336.06,341.09,333.61Z" style="fill:#fafafa"></path><polygon points="378.29 320.67 374.42 319.34 371.3 322.98 369.06 320 364.2 323.68 359.75 320.67 352.96 323.68 350.11 319.67 345.91 319.67 349.07 314.64 372.25 277.9 377.48 314.94 378.29 320.67" style="fill:#f0f0f0"></polygon><polygon points="377.48 314.94 375.65 314.31 372.54 317.96 370.3 314.97 365.44 318.66 360.99 315.64 354.19 318.66 351.35 314.64 349.07 314.64 372.25 277.9 377.48 314.94" style="fill:#e0e0e0"></polygon><path d="M376.69,301.66c.21,1.5-1,3.32-2.28,3.37-.48,0-1,.06-1.44.1a5.91,5.91,0,0,1-4.1-.79c-1.08-.85-1.92-2.56-3.43-2-1.21.47-2.14,2.19-3.32,3-1.54,1-3,.17-4-.88a16.34,16.34,0,0,1-1.2-1.4,2.76,2.76,0,0,1,.23-2.91l15.8-25Z" style="fill:#f5f5f5"></path><path d="M351.1,310.18c-.26,1-.24,2.17.44,2.29.41.07.9-.29,1.32-.67,1.31-1.18,5-5.7,3.1-6.92C354.25,303.78,351.62,308.22,351.1,310.18Z" style="fill:#fafafa"></path><path d="M367.73,309.61a7.81,7.81,0,0,0-.57-1.69c-2.58-4.37-4.79,4.22-4.48,5.12.21.59.6,1.2,1.19.92a1.66,1.66,0,0,0,.5-.4c.46-.49,1.17-.68,1.5-.32a1,1,0,0,0,1.39-.06,2.19,2.19,0,0,0,.7-1.56A9.16,9.16,0,0,0,367.73,309.61Z" style="fill:#fafafa"></path><path d="M376.86,307.74c-.45-.63-1.46-.26-1.92.72a2.77,2.77,0,0,0,0,2.29,3.77,3.77,0,0,0,1.3,1.33.48.48,0,0,0,.21.07c.46,0,1-.54,1.09-1.17A4.37,4.37,0,0,0,376.86,307.74Z" style="fill:#fafafa"></path><path d="M370.2,309c-.27-.39-.89-.16-1.17.44a1.71,1.71,0,0,0,0,1.4,2.15,2.15,0,0,0,.8.81.21.21,0,0,0,.12.05c.29,0,.6-.33.67-.72A2.6,2.6,0,0,0,370.2,309Z" style="fill:#fafafa"></path><path d="M373.42,360.18c-.08-.56-.63-.68-1.05-.2a2.17,2.17,0,0,0-.5,1.45,3.61,3.61,0,0,0,.33,1.3.36.36,0,0,0,.08.12c.21.18.57,0,.76-.37A4,4,0,0,0,373.42,360.18Z" style="fill:#fafafa"></path><path d="M334.77,358.41a35.24,35.24,0,0,1,3.56,0,1.31,1.31,0,0,1,1.23,1h0a3.67,3.67,0,0,1-1.19,3.62l-.72.63a1.87,1.87,0,0,1-1.53.51l-2.72-.58a1.26,1.26,0,0,1-.93-.9h0a3.47,3.47,0,0,1,1.35-3.58Z" style="fill:#fafafa"></path><path d="M357.72,359.29l-1.73,1a2.77,2.77,0,0,0-1.22,3l.32.85,2.15,2c.73.67,1.89.47,2.86-.49l.46-.48c1.72-1.82,1.94-4.79.45-5.72A3.08,3.08,0,0,0,357.72,359.29Z" style="fill:#fafafa"></path><path d="M375.68,356.71a3.64,3.64,0,0,0-.62,3.64,4,4,0,0,0,2.16,1.86c1-1.18,1.61-1.53,1.33-2.81S376.85,356.38,375.68,356.71Z" style="fill:#fafafa"></path><polygon points="419.16 381.74 406.88 381.74 416.98 355.13 422.15 355.13 419.16 381.74" style="fill:#e0e0e0"></polygon><polygon points="454.43 361.63 443.59 360.77 437.83 366.72 433.03 361.78 423.56 367.87 414.01 362.78 399.87 367.87 393.31 360.96 381.42 360.88 386.83 353.95 435.19 292.05 452.42 354.38 454.43 361.63" style="fill:#f0f0f0"></polygon><polygon points="452.42 354.38 445.3 353.81 439.55 359.76 434.74 354.82 425.27 360.91 415.72 355.82 401.58 360.91 395.02 354 386.83 353.95 435.19 292.05 452.42 354.38" style="fill:#e0e0e0"></polygon><path d="M451,342.88a1.72,1.72,0,0,1-.62,1.65c-1.42,1.1-2.82,2.31-4.23,3.41-2.94,2.29-6.33,4.2-9,3.35-3.1-1-4.48-5.53-7.88-5.62-3.2-.07-6.57,3.75-9.94,5.57-4.36,2.36-9.05,1.07-10.59-3.3-2.56-7.25-13.81-2.67-16.31-1.33l0,0c-.94.48-1.38-.82-.62-1.79l44.1-56.39Z" style="fill:#fafafa;opacity:0.8"></path><polygon points="455.16 335.16 446.09 334.35 441.11 339.97 437.21 335.31 429.11 341.06 421.24 336.25 409.25 341.06 403.94 334.52 393.97 334.45 399.79 326.37 440.86 269.37 453.32 326.7 455.16 335.16" style="fill:#f0f0f0"></polygon><polygon points="453.32 326.7 448.09 326.24 443.11 331.86 439.2 327.2 431.11 332.95 423.23 328.14 411.25 332.95 405.93 326.41 399.79 326.37 440.86 269.37 453.32 326.7" style="fill:#e0e0e0"></polygon><path d="M451,310.66a1.79,1.79,0,0,1-1.28,2h0c-3.25.39-6.65,2.4-10,4.26s-6.78,3.63-9.92,3.46c-3.81-.19-6.55-3.22-10.21-3.92-3-.58-6.46.46-9.57.19a7,7,0,0,1-2.51-.68c-.54-.26-.54-1.25,0-2l34-47.14Z" style="fill:#fafafa;opacity:0.8"></path><path d="M414.25,321.54l2.67-1a1.25,1.25,0,0,1,1.48.33l1,1.24c.83,1,.21,3.21-1.15,4.09l-3.5,2.22a1.36,1.36,0,0,1-2.24-1.14l-.19-2.45A3.48,3.48,0,0,1,414.25,321.54Z" style="fill:#fafafa"></path><path d="M448.22,317.51a12.9,12.9,0,0,0-5.8,5.73c.25,1.67.84,3,2.21,3.19,1.18-1.2,2.41-1.75,3.6-3,.81,0,1.78.32,2.6.27.53-1.32,1.18-2.62,1.71-3.95a8.24,8.24,0,0,0-1-3.42A33.12,33.12,0,0,0,448.22,317.51Z" style="fill:#fafafa"></path><path d="M405.22,318.83h0a9,9,0,0,0-4.35,5.83l-.08.31S405.56,322,405.22,318.83Z" style="fill:#fafafa"></path><polygon points="453.84 301.92 448.77 300.18 444.7 304.94 441.77 301.05 435.43 305.86 429.61 301.92 420.73 305.86 417.01 300.61 411.51 300.61 415.65 294.04 445.94 246.02 452.78 294.43 453.84 301.92" style="fill:#f0f0f0"></polygon><polygon points="452.78 294.43 450.39 293.6 446.31 298.37 443.39 294.47 437.04 299.29 431.23 295.34 422.34 299.29 418.62 294.04 415.65 294.04 445.94 246.02 452.78 294.43" style="fill:#e0e0e0"></polygon><path d="M451.74,277.07c.28,2-1.32,4.34-3,4.42-.62,0-1.25.07-1.88.11-1.93.12-3.92.11-5.35-1S439,277.24,437,278c-1.57.61-2.78,2.85-4.33,3.88-2,1.34-3.9.22-5.24-1.16a19.77,19.77,0,0,1-1.56-1.83c-.67-.87-.53-2.49.29-3.8l20.65-32.74Z" style="fill:#f5f5f5"></path><path d="M418.3,288.22c-.34,1.27-.32,2.82.58,3,.54.09,1.17-.37,1.72-.87,1.71-1.54,6.53-7.45,4-9.05C422.42,279.84,419,285.66,418.3,288.22Z" style="fill:#fafafa"></path><path d="M440,287.47a9.73,9.73,0,0,0-.74-2.21c-3.37-5.71-6.27,5.51-5.85,6.68.27.78.77,1.57,1.55,1.21a2.27,2.27,0,0,0,.66-.53c.6-.64,1.52-.88,2-.41a1.35,1.35,0,0,0,1.82-.08,2.83,2.83,0,0,0,.91-2A11.55,11.55,0,0,0,440,287.47Z" style="fill:#fafafa"></path><path d="M452,285c-.58-.83-1.9-.35-2.5.94a3.6,3.6,0,0,0,0,3,4.73,4.73,0,0,0,1.7,1.74.44.44,0,0,0,.27.09c.6.05,1.27-.7,1.43-1.52A5.7,5.7,0,0,0,452,285Z" style="fill:#fafafa"></path><path d="M443.27,286.63c-.36-.5-1.17-.21-1.54.58a2.22,2.22,0,0,0,0,1.82,2.89,2.89,0,0,0,1,1.07.49.49,0,0,0,.17.06c.36,0,.78-.43.87-.94A3.49,3.49,0,0,0,443.27,286.63Z" style="fill:#fafafa"></path><path d="M447.47,353.56c-.1-.73-.82-.89-1.38-.27a2.91,2.91,0,0,0-.65,1.9,5,5,0,0,0,.43,1.7.5.5,0,0,0,.11.16c.27.24.75,0,1-.48A5.28,5.28,0,0,0,447.47,353.56Z" style="fill:#fafafa"></path><path d="M397,351.25a44.08,44.08,0,0,1,4.66,0,1.73,1.73,0,0,1,1.61,1.29h0a4.8,4.8,0,0,1-1.56,4.73l-.94.81a2.41,2.41,0,0,1-2,.67l-3.56-.75a1.66,1.66,0,0,1-1.21-1.18h0a4.52,4.52,0,0,1,1.76-4.68Z" style="fill:#fafafa"></path><path d="M427,352.4l-2.27,1.29a3.64,3.64,0,0,0-1.6,4l.42,1.11,2.82,2.61c.95.88,2.46.62,3.73-.64.2-.19.4-.4.6-.62,2.25-2.38,2.54-6.27.59-7.48A4,4,0,0,0,427,352.4Z" style="fill:#fafafa"></path><path d="M450.42,349a4.82,4.82,0,0,0-.81,4.77,5.38,5.38,0,0,0,2.82,2.43c1.3-1.55,2.11-2,1.75-3.68S452,348.59,450.42,349Z" style="fill:#fafafa"></path><rect y="382.4" width="500" height="0.25" style="fill:#ebebeb"></rect></g><g id="freepik--Shadow--inject-74"><path d="M443.89,415.69C443.89,422,357.08,427,250,427S56.11,422,56.11,415.69c0-1.18,3.09-2.32,8.83-3.39h0c15.56-2.9,50.52-5.29,96-6.67,26.66-.8,56.94-1.26,89-1.26,35.74,0,69.22.56,98,1.55q7.88.29,15.26.59l3.25.14h0l2.05.09q4.57.21,8.93.43c1,.05,1.93.09,2.88.15l4.58.25,1.94.11c5.76.33,11.17.69,16.17,1.06l4.73.37,1.71.14,4.51.4,4.23.41c3.39.34,6.49.7,9.26,1.07l1.54.21c3,.42,5.6.85,7.73,1.3C441.41,413.61,443.89,414.63,443.89,415.69Z" style="fill:#f5f5f5"></path></g><g id="freepik--Trees--inject-74"><polygon points="146.39 382.19 122.49 382.19 137.58 340.29 147.65 340.29 146.39 382.19" style="fill:#263238"></polygon><polygon points="211.6 350.93 190.35 349.57 180.17 358.95 169.97 351.18 152.58 360.76 133.11 352.75 106.46 360.76 92.5 349.88 69.34 349.75 78.69 338.83 162.2 241.36 206.44 339.51 211.6 350.93" style="fill:#00D9BE"></polygon><g style="opacity:0.4"><polygon points="211.6 350.93 190.35 349.57 180.17 358.95 169.97 351.18 152.58 360.76 133.11 352.75 106.46 360.76 92.5 349.88 69.34 349.75 78.69 338.83 162.2 241.36 206.44 339.51 211.6 350.93" style="fill:#fff"></polygon></g><polygon points="206.44 339.51 192.49 338.62 182.31 347.99 172.11 340.22 154.72 349.81 135.25 341.79 108.59 349.81 94.64 338.92 78.69 338.83 162.2 241.36 206.44 339.51" style="opacity:0.1"></polygon><path d="M201.65,321.4a2.22,2.22,0,0,1-.93,2.6c-2.57,1.74-5.08,3.64-7.64,5.37-5.33,3.61-11.6,6.62-16.92,5.29-6.21-1.55-9.68-8.72-16.32-8.85-6.23-.13-12.14,5.9-18.38,8.76-8.1,3.71-17.44,1.69-21.2-5.2-6.22-11.42-27.32-4.19-32-2.09l0,0c-1.73.77-2.82-1.28-1.51-2.81l76.17-88.81Z" style="fill:#00D9BE"></path><path d="M201.65,321.4a2.22,2.22,0,0,1-.93,2.6c-2.57,1.74-5.08,3.64-7.64,5.37-5.33,3.61-11.6,6.62-16.92,5.29-6.21-1.55-9.68-8.72-16.32-8.85-6.23-.13-12.14,5.9-18.38,8.76-8.1,3.71-17.44,1.69-21.2-5.2-6.22-11.42-27.32-4.19-32-2.09l0,0c-1.73.77-2.82-1.28-1.51-2.81l76.17-88.81Z" style="fill:#fff;opacity:0.9"></path><polygon points="208.49 309.25 190.69 307.98 181.97 316.83 173.56 309.49 158.79 318.55 142.64 310.98 120.13 318.55 108.66 308.25 89.24 308.13 99.19 295.4 169.35 205.65 203.46 295.94 208.49 309.25" style="fill:#00D9BE"></polygon><polygon points="208.49 309.25 190.69 307.98 181.97 316.83 173.56 309.49 158.79 318.55 142.64 310.98 120.13 318.55 108.66 308.25 89.24 308.13 99.19 295.4 169.35 205.65 203.46 295.94 208.49 309.25" style="fill:#fff;opacity:0.5"></polygon><polygon points="203.46 295.94 193.19 295.2 184.46 304.06 176.06 296.72 161.28 305.77 145.13 298.2 122.63 305.77 111.15 295.48 99.19 295.4 169.35 205.65 203.46 295.94" style="opacity:0.1"></polygon><path d="M196.23,270.67a2.56,2.56,0,0,1-2.15,3.2h0c-6.27.61-12.54,3.78-18.66,6.7s-12.57,5.72-18.7,5.46c-7.46-.3-13.31-5.08-20.55-6.18-6-.91-12.51.72-18.6.3a18,18,0,0,1-5-1.06c-1.1-.42-1.27-2-.38-3.11l58-74.24Z" style="fill:#00D9BE"></path><g style="opacity:0.9"><path d="M196.23,270.67a2.56,2.56,0,0,1-2.15,3.2h0c-6.27.61-12.54,3.78-18.66,6.7s-12.57,5.72-18.7,5.46c-7.46-.3-13.31-5.08-20.55-6.18-6-.91-12.51.72-18.6.3a18,18,0,0,1-5-1.06c-1.1-.42-1.27-2-.38-3.11l58-74.24Z" style="fill:#fff"></path></g><polygon points="200.21 256.91 190.05 254.17 182.94 261.66 176.57 255.54 165.04 263.11 153.04 256.91 136.43 263.11 128.29 254.84 117.59 254.84 124.52 244.51 175.24 168.88 196.86 245.11 200.21 256.91" style="fill:#00D9BE"></polygon><polygon points="200.21 256.91 190.05 254.17 182.94 261.66 176.57 255.54 165.04 263.11 153.04 256.91 136.43 263.11 128.29 254.84 117.59 254.84 124.52 244.51 175.24 168.88 196.86 245.11 200.21 256.91" style="fill:#fff;opacity:0.6000000000000001"></polygon><polygon points="196.86 245.11 192.07 243.81 184.95 251.33 178.59 245.18 167.06 252.77 155.06 246.55 138.44 252.77 130.3 244.51 124.52 244.51 175.24 168.88 196.86 245.11" style="opacity:0.1"></polygon><path d="M126.51,287.81l5-1.59a3,3,0,0,1,2.94.51l2.18,1.95c1.8,1.61,1,5.07-1.55,6.44l-6.41,3.5c-2,1.1-4.14.27-4.56-1.8l-.79-3.86A4.76,4.76,0,0,1,126.51,287.81Z" style="fill:#00D9BE"></path><path d="M192,281.46a20.06,20.06,0,0,0-10.32,9c.78,2.62,2.17,4.77,4.85,5,2.1-1.9,4.4-2.76,6.5-4.66,1.58-.06,3.53.49,5.12.43.8-2.09,1.84-4.14,2.65-6.23a12.71,12.71,0,0,0-2.47-5.39C196.76,280,193.46,280.92,192,281.46Z" style="fill:#00D9BE"></path><path d="M108.46,283.54h0a12.75,12.75,0,0,0-7.46,9.18l-.1.49S109.69,288.59,108.46,283.54Z" style="fill:#00D9BE"></path><g style="opacity:0.9"><path d="M126.51,287.81l5-1.59a3,3,0,0,1,2.94.51l2.18,1.95c1.8,1.61,1,5.07-1.55,6.44l-6.41,3.5c-2,1.1-4.14.27-4.56-1.8l-.79-3.86A4.76,4.76,0,0,1,126.51,287.81Z" style="fill:#fff"></path><path d="M192,281.46a20.06,20.06,0,0,0-10.32,9c.78,2.62,2.17,4.77,4.85,5,2.1-1.9,4.4-2.76,6.5-4.66,1.58-.06,3.53.49,5.12.43.8-2.09,1.84-4.14,2.65-6.23a12.71,12.71,0,0,0-2.47-5.39C196.76,280,193.46,280.92,192,281.46Z" style="fill:#fff"></path><path d="M108.46,283.54h0a12.75,12.75,0,0,0-7.46,9.18l-.1.49S109.69,288.59,108.46,283.54Z" style="fill:#fff;opacity:0.9"></path></g><path d="M128.67,235.33c-.44,2-.13,4.45,1.64,4.7a4.79,4.79,0,0,0,3.21-1.37c3.07-2.43,11.44-11.74,6.34-14.25C135.26,222.14,129.56,231.3,128.67,235.33Z" style="fill:#00D9BE"></path><path d="M170.85,234.15a15.84,15.84,0,0,0-1.81-3.47c-7.55-9-11.26,8.67-10.26,10.52.66,1.21,1.78,2.47,3.23,1.91a4,4,0,0,0,1.19-.84c1.06-1,2.81-1.38,3.74-.66a3.08,3.08,0,0,0,3.52-.11,3.67,3.67,0,0,0,1.42-3.22A15.44,15.44,0,0,0,170.85,234.15Z" style="fill:#00D9BE"></path><path d="M193.66,230.31c-1.28-1.3-3.77-.55-4.71,1.48a4.73,4.73,0,0,0,.44,4.69,9.9,9.9,0,0,0,3.59,2.74,1.19,1.19,0,0,0,.55.15,2.69,2.69,0,0,0,2.52-2.4A8.31,8.31,0,0,0,193.66,230.31Z" style="fill:#00D9BE"></path><path d="M177,232.83c-.79-.79-2.31-.33-2.89.91a2.9,2.9,0,0,0,.27,2.88,6,6,0,0,0,2.2,1.67.83.83,0,0,0,.34.1,1.67,1.67,0,0,0,1.54-1.48A5.12,5.12,0,0,0,177,232.83Z" style="fill:#00D9BE"></path><g style="opacity:0.9"><path d="M128.67,235.33c-.44,2-.13,4.45,1.64,4.7a4.79,4.79,0,0,0,3.21-1.37c3.07-2.43,11.44-11.74,6.34-14.25C135.26,222.14,129.56,231.3,128.67,235.33Z" style="fill:#fff"></path></g><path d="M170.85,234.15a15.84,15.84,0,0,0-1.81-3.47c-7.55-9-11.26,8.67-10.26,10.52.66,1.21,1.78,2.47,3.23,1.91a4,4,0,0,0,1.19-.84c1.06-1,2.81-1.38,3.74-.66a3.08,3.08,0,0,0,3.52-.11,3.67,3.67,0,0,0,1.42-3.22A15.44,15.44,0,0,0,170.85,234.15Z" style="fill:#fff;opacity:0.9"></path><path d="M193.66,230.31c-1.28-1.3-3.77-.55-4.71,1.48a4.73,4.73,0,0,0,.44,4.69,9.9,9.9,0,0,0,3.59,2.74,1.19,1.19,0,0,0,.55.15,2.69,2.69,0,0,0,2.52-2.4A8.31,8.31,0,0,0,193.66,230.31Z" style="fill:#fff;opacity:0.9"></path><path d="M177,232.83c-.79-.79-2.31-.33-2.89.91a2.9,2.9,0,0,0,.27,2.88,6,6,0,0,0,2.2,1.67.83.83,0,0,0,.34.1,1.67,1.67,0,0,0,1.54-1.48A5.12,5.12,0,0,0,177,232.83Z" style="fill:#fff;opacity:0.9"></path><path d="M192.81,216.43a6,6,0,0,1-5.24,7.21c-1.25,0-2.51.12-3.76.19-3.88.19-7.9.18-11-1.67s-5.66-5.46-9.53-4.21c-3.06,1-5.12,4.67-8.06,6.34-3.83,2.2-7.83.36-10.77-1.88a43.15,43.15,0,0,1-3.5-3c-1.49-1.43-1.5-4.08-.07-6.21l35.86-53.47Z" style="fill:#00D9BE"></path><g style="opacity:0.9"><path d="M192.81,216.43a6,6,0,0,1-5.24,7.21c-1.25,0-2.51.12-3.76.19-3.88.19-7.9.18-11-1.67s-5.66-5.46-9.53-4.21c-3.06,1-5.12,4.67-8.06,6.34-3.83,2.2-7.83.36-10.77-1.88a43.15,43.15,0,0,1-3.5-3c-1.49-1.43-1.5-4.08-.07-6.21l35.86-53.47Z" style="fill:#fff"></path></g><path d="M196.67,338.22c-.32-1.15-1.75-1.39-2.73-.41a3.64,3.64,0,0,0-.94,3,7.17,7.17,0,0,0,1.13,2.69.69.69,0,0,0,.24.24,1.4,1.4,0,0,0,1.85-.76A6.61,6.61,0,0,0,196.67,338.22Z" style="fill:#fff;opacity:0.7000000000000001"></path><path d="M97.94,334.59c.69-.18,5.93-.11,9,0a3.79,3.79,0,0,1,3.36,2h0c1.22,2.29.23,5.61-2.22,7.45l-1.7,1.28a5,5,0,0,1-3.78,1.05l-7.05-1.18A3.54,3.54,0,0,1,93,343.31h0c-1.24-2.35,0-5.79,2.63-7.36Z" style="fill:#fff;opacity:0.7000000000000001"></path><path d="M156.54,336.4l-4.2,2c-2.39,1.16-3.58,4.22-2.42,6.23l1,1.75,5.93,4.12c2,1.38,4.91,1,7.15-1,.36-.31.71-.64,1.07-1,4-3.74,3.87-9.87-.14-11.78A9.44,9.44,0,0,0,156.54,336.4Z" style="fill:#fff;opacity:0.7000000000000001"></path><path d="M201.64,331.08a6.19,6.19,0,0,0-.77,7.51c1.35,2,3.68,3,5.92,3.82,2.25-2.43,3.75-3.16,2.76-5.8S204.56,330.4,201.64,331.08Z" style="fill:#fff;opacity:0.7000000000000001"></path><polygon points="323.24 382.66 349.89 382.66 352.05 335.93 340.83 335.93 323.24 382.66" style="fill:#263238"></polygon><polygon points="264.87 346.16 289.19 344.65 296.29 355.1 311.19 346.44 326.24 357.13 351.58 348.19 377.67 357.13 398.17 344.99 424.06 344.84 418.58 332.67 369.64 223.97 275.8 333.43 264.87 346.16" style="fill:#00D9BE"></polygon><g style="opacity:0.4"><polygon points="264.87 346.16 289.19 344.65 296.29 355.1 311.19 346.44 326.24 357.13 351.58 348.19 377.67 357.13 398.17 344.99 424.06 344.84 418.58 332.67 369.64 223.97 275.8 333.43 264.87 346.16" style="fill:#fff"></polygon></g><polygon points="275.8 333.43 291.77 332.43 298.87 342.88 313.77 334.21 328.82 344.91 354.16 335.97 380.26 344.91 400.76 332.77 418.58 332.67 369.64 223.97 275.8 333.43" style="opacity:0.1"></polygon><path d="M284.5,313.23a2,2,0,0,0-.15,2.9c2.23,1.94,4.32,4.06,6.54,6,4.65,4,10.71,7.39,17.75,5.9,8.22-1.74,15.88-9.72,23.92-9.88,7.55-.13,11.7,6.58,17.8,9.77,7.91,4.15,20.12,1.89,28-5.79,13-12.73,34.87-4.68,39.41-2.33l.06,0c1.7.85,4-1.43,3.18-3.14l-48.13-99Z" style="fill:#00D9BE"></path><path d="M284.5,313.23a2,2,0,0,0-.15,2.9c2.23,1.94,4.32,4.06,6.54,6,4.65,4,10.71,7.39,17.75,5.9,8.22-1.74,15.88-9.72,23.92-9.88,7.55-.13,11.7,6.58,17.8,9.77,7.91,4.15,20.12,1.89,28-5.79,13-12.73,34.87-4.68,39.41-2.33l.06,0c1.7.85,4-1.43,3.18-3.14l-48.13-99Z" style="fill:#fff;opacity:0.9"></path><polygon points="287.24 299.67 307.66 298.26 313.38 308.13 326.08 299.95 338.45 310.05 359.9 301.6 381.56 310.05 399.03 298.56 420.74 298.44 415.42 284.24 377.86 184.13 298.88 284.83 287.24 299.67" style="fill:#00D9BE"></polygon><polygon points="287.24 299.67 307.66 298.26 313.38 308.13 326.08 299.95 338.45 310.05 359.9 301.6 381.56 310.05 399.03 298.56 420.74 298.44 415.42 284.24 377.86 184.13 298.88 284.83 287.24 299.67" style="fill:#fff;opacity:0.5"></polygon><polygon points="298.88 284.83 310.67 284.01 316.39 293.88 329.09 285.7 341.46 295.8 362.91 287.36 384.58 295.8 402.04 284.32 415.42 284.24 377.86 184.13 298.88 284.83" style="opacity:0.1"></polygon><path d="M318.4,256.65c-1.18,1.51-.65,3.42,1,3.57h0c6.72.67,12.27,4.21,17.77,7.47s11.43,6.37,18.38,6.08c8.46-.33,17.16-5.66,25.73-6.89,7.05-1,13.62.81,20.6.33a24.22,24.22,0,0,0,6.06-1.18,2.88,2.88,0,0,0,1.83-3.47l-31.06-82.79Z" style="fill:#00D9BE"></path><path d="M318.4,256.65c-1.18,1.51-.65,3.42,1,3.57h0c6.72.67,12.27,4.21,17.77,7.47s11.43,6.37,18.38,6.08c8.46-.33,17.16-5.66,25.73-6.89,7.05-1,13.62.81,20.6.33a24.22,24.22,0,0,0,6.06-1.18,2.88,2.88,0,0,0,1.83-3.47l-31.06-82.79Z" style="fill:#fff;opacity:0.9"></path><polygon points="320.2 241.3 332.78 238.25 337.31 246.61 347.18 239.77 356.62 248.22 372.81 241.3 388.53 248.22 401.35 239 413.28 239 410.24 227.47 387.96 143.13 329.29 228.15 320.2 241.3" style="fill:#00D9BE"></polygon><polygon points="320.2 241.3 332.78 238.25 337.31 246.61 347.18 239.77 356.62 248.22 372.81 241.3 388.53 248.22 401.35 239 413.28 239 410.24 227.47 387.96 143.13 329.29 228.15 320.2 241.3" style="fill:#fff;opacity:0.6000000000000001"></polygon><polygon points="329.29 228.15 335.22 226.7 339.75 235.08 349.63 228.23 359.05 236.69 375.25 229.76 390.96 236.69 403.79 227.47 410.24 227.47 387.96 143.13 329.29 228.15" style="opacity:0.1"></polygon><path d="M347.25,197.67c-2.38,3.45-1.06,7.62,2.48,7.75,1.33.05,2.65.14,4,.21,4.09.21,8.42.19,12.56-1.8s8.47-5.87,12.08-4.52c2.86,1.08,3.47,5,5.9,6.82,3.16,2.36,8.27.38,12.41-2,1.71-1,3.41-2.08,5.07-3.22a6.53,6.53,0,0,0,2.79-6.68l-15.19-57.49Z" style="fill:#00D9BE"></path><g style="opacity:0.9"><path d="M347.25,197.67c-2.38,3.45-1.06,7.62,2.48,7.75,1.33.05,2.65.14,4,.21,4.09.21,8.42.19,12.56-1.8s8.47-5.87,12.08-4.52c2.86,1.08,3.47,5,5.9,6.82,3.16,2.36,8.27.38,12.41-2,1.71-1,3.41-2.08,5.07-3.22a6.53,6.53,0,0,0,2.79-6.68l-15.19-57.49Z" style="fill:#fff"></path></g><path d="M388.38,275.77,383.51,274a4,4,0,0,0-3.51.58l-3.32,2.17c-2.73,1.79-3.37,5.65-1.19,7.18l5.57,3.91c1.75,1.23,4.49.29,5.9-2l2.62-4.31C391,279.2,390.44,276.52,388.38,275.77Z" style="fill:#00D9BE"></path><path d="M318.28,268.68a12.72,12.72,0,0,1,7.42,10.07c-2.06,2.93-4.58,5.33-7.68,5.6-1.49-2.11-3.66-3.08-5.14-5.19-1.74-.07-4.17.55-5.9.47,0-2.33-.19-4.61-.14-6.94a24.42,24.42,0,0,1,5.2-6A54,54,0,0,1,318.28,268.68Z" style="fill:#00D9BE"></path><path d="M410.45,271h0c3.47,1.69,5.12,5.73,4.17,10.23l-.12.55S406.79,276.64,410.45,271Z" style="fill:#00D9BE"></path><g style="opacity:0.9"><path d="M388.38,275.77,383.51,274a4,4,0,0,0-3.51.58l-3.32,2.17c-2.73,1.79-3.37,5.65-1.19,7.18l5.57,3.91c1.75,1.23,4.49.29,5.9-2l2.62-4.31C391,279.2,390.44,276.52,388.38,275.77Z" style="fill:#fff"></path><path d="M318.28,268.68a12.72,12.72,0,0,1,7.42,10.07c-2.06,2.93-4.58,5.33-7.68,5.6-1.49-2.11-3.66-3.08-5.14-5.19-1.74-.07-4.17.55-5.9.47,0-2.33-.19-4.61-.14-6.94a24.42,24.42,0,0,1,5.2-6A54,54,0,0,1,318.28,268.68Z" style="fill:#fff"></path><path d="M410.45,271h0c3.47,1.69,5.12,5.73,4.17,10.23l-.12.55S406.79,276.64,410.45,271Z" style="fill:#fff"></path></g><path d="M287.28,332c.88-1.28,2.59-1.55,3.23-.46a3.6,3.6,0,0,1-.31,3.33,13.08,13.08,0,0,1-2.47,3,1.52,1.52,0,0,1-.37.27,1.13,1.13,0,0,1-1.73-.84A8.4,8.4,0,0,1,287.28,332Z" style="fill:#00D9BE"></path><path d="M399,327.94c-.69-.2-6.57-.12-10.07-.05a6.73,6.73,0,0,0-4.67,2.25h0c-2.39,2.56-2.8,6.27-.9,8.31l1.32,1.43a4.1,4.1,0,0,0,3.73,1.18l8.4-1.33a6.61,6.61,0,0,0,3.71-2.06h0c2.45-2.63,2.64-6.46.4-8.22Z" style="fill:#00D9BE"></path><path d="M332.87,330l3.76,2.26c2.13,1.29,2.08,4.71-.12,6.95l-1.91,1.95-8.49,4.59c-2.85,1.55-5.92,1.1-7.52-1.12-.25-.35-.5-.71-.75-1.09-2.73-4.17.16-11,5.5-13.14C326.69,329,330.26,328.39,332.87,330Z" style="fill:#00D9BE"></path><path d="M285,324c1.39,2.31-.13,6.14-2.55,8.38s-5.44,3.29-8.33,4.26c-1.41-2.71-2.75-3.52-.45-6.47S282,323.27,285,324Z" style="fill:#00D9BE"></path><g style="opacity:0.9"><path d="M287.28,332c.88-1.28,2.59-1.55,3.23-.46a3.6,3.6,0,0,1-.31,3.33,13.08,13.08,0,0,1-2.47,3,1.52,1.52,0,0,1-.37.27,1.13,1.13,0,0,1-1.73-.84A8.4,8.4,0,0,1,287.28,332Z" style="fill:#fff"></path><path d="M399,327.94c-.69-.2-6.57-.12-10.07-.05a6.73,6.73,0,0,0-4.67,2.25h0c-2.39,2.56-2.8,6.27-.9,8.31l1.32,1.43a4.1,4.1,0,0,0,3.73,1.18l8.4-1.33a6.61,6.61,0,0,0,3.71-2.06h0c2.45-2.63,2.64-6.46.4-8.22Z" style="fill:#fff"></path><path d="M332.87,330l3.76,2.26c2.13,1.29,2.08,4.71-.12,6.95l-1.91,1.95-8.49,4.59c-2.85,1.55-5.92,1.1-7.52-1.12-.25-.35-.5-.71-.75-1.09-2.73-4.17.16-11,5.5-13.14C326.69,329,330.26,328.39,332.87,330Z" style="fill:#fff"></path><path d="M285,324c1.39,2.31-.13,6.14-2.55,8.38s-5.44,3.29-8.33,4.26c-1.41-2.71-2.75-3.52-.45-6.47S282,323.27,285,324Z" style="fill:#fff"></path></g><path d="M409.77,217.24c-.42,2.23-1.87,5-4,5.24a3.44,3.44,0,0,1-3-1.52c-2.32-2.72-7.43-13.1-.6-15.9C408.4,202.53,410.61,212.74,409.77,217.24Z" style="fill:#00D9BE"></path><path d="M363.27,215.92a30,30,0,0,1,3.59-3.87c12.5-10,8.63,9.68,6.66,11.74-1.28,1.35-3.1,2.75-4.45,2.12a2.38,2.38,0,0,1-1-.93,2.93,2.93,0,0,0-3.86-.73,3.33,3.33,0,0,1-3.88-.13c-.83-.77-.74-2.32-.13-3.59A26.76,26.76,0,0,1,363.27,215.92Z" style="fill:#00D9BE"></path><path d="M339.57,211.64c2-1.45,4.45-.61,4.58,1.65.11,1.83-1.09,3.87-2.62,5.24a19.3,19.3,0,0,1-5.25,3.05,1.75,1.75,0,0,1-.68.17c-1.34.09-2.13-1.24-1.72-2.68A15.07,15.07,0,0,1,339.57,211.64Z" style="fill:#00D9BE"></path><path d="M357,214.45c1.23-.88,2.72-.37,2.81,1a4.36,4.36,0,0,1-1.61,3.2,11.62,11.62,0,0,1-3.22,1.87,1.09,1.09,0,0,1-.41.11c-.83,0-1.31-.76-1.06-1.64A9.26,9.26,0,0,1,357,214.45Z" style="fill:#00D9BE"></path><g style="opacity:0.9"><path d="M409.77,217.24c-.42,2.23-1.87,5-4,5.24a3.44,3.44,0,0,1-3-1.52c-2.32-2.72-7.43-13.1-.6-15.9C408.4,202.53,410.61,212.74,409.77,217.24Z" style="fill:#fff"></path><path d="M363.27,215.92a30,30,0,0,1,3.59-3.87c12.5-10,8.63,9.68,6.66,11.74-1.28,1.35-3.1,2.75-4.45,2.12a2.38,2.38,0,0,1-1-.93,2.93,2.93,0,0,0-3.86-.73,3.33,3.33,0,0,1-3.88-.13c-.83-.77-.74-2.32-.13-3.59A26.76,26.76,0,0,1,363.27,215.92Z" style="fill:#fff"></path><path d="M339.57,211.64c2-1.45,4.45-.61,4.58,1.65.11,1.83-1.09,3.87-2.62,5.24a19.3,19.3,0,0,1-5.25,3.05,1.75,1.75,0,0,1-.68.17c-1.34.09-2.13-1.24-1.72-2.68A15.07,15.07,0,0,1,339.57,211.64Z" style="fill:#fff"></path><path d="M357,214.45c1.23-.88,2.72-.37,2.81,1a4.36,4.36,0,0,1-1.61,3.2,11.62,11.62,0,0,1-3.22,1.87,1.09,1.09,0,0,1-.41.11c-.83,0-1.31-.76-1.06-1.64A9.26,9.26,0,0,1,357,214.45Z" style="fill:#fff"></path></g></g><g id="freepik--Sun--inject-74"><circle cx="273.51" cy="149.01" r="25.75" style="fill:#00D9BE"></circle><circle cx="273.51" cy="149.01" r="25.75" style="fill:#fff;opacity:0.9"></circle></g><g id="freepik--Characters--inject-74"><path d="M341.62,381.87l0-3.1c5.07,0,8.67-1.77,10.69-5.13,3.58-5.95,1.55-15.42-.28-18.94-2.15-4.15-7.87-7-13-6.48a9.61,9.61,0,0,0-8.64,7.42c-4,13.88-13.82,12.66-13.92,12.65l.42-3.07c.29,0,7.3.76,10.53-10.44a12.69,12.69,0,0,1,11.3-9.64c6.43-.64,13.34,2.86,16.08,8.13,2.16,4.17,4.44,14.9.18,22C353.13,378.23,349.36,381.81,341.62,381.87Z" style="fill:#00D9BE"></path><path d="M205.89,406.14l-9.73-3.44a110.59,110.59,0,0,1,15-28.25l8.31,6.11A100.36,100.36,0,0,0,205.89,406.14Z" style="fill:#00D9BE"></path><g style="opacity:0.2"><path d="M205.89,406.14l-9.73-3.44a110.59,110.59,0,0,1,15-28.25l8.31,6.11A100.36,100.36,0,0,0,205.89,406.14Z" style="fill:#fff"></path></g><path d="M306.51,402.7l-10.25-1.15c.92-8.22,0-13.05-1.5-21.05-.19-1-.38-2-.57-3.05l10.15-1.88c.19,1.05.38,2.05.56,3C306.47,386.92,307.61,392.94,306.51,402.7Z" style="fill:#00D9BE"></path><g style="opacity:0.2"><path d="M306.51,402.7l-10.25-1.15c.92-8.22,0-13.05-1.5-21.05-.19-1-.38-2-.57-3.05l10.15-1.88c.19,1.05.38,2.05.56,3C306.47,386.92,307.61,392.94,306.51,402.7Z" style="fill:#fff"></path></g><path d="M167.18,398.38c8.73.82,106.43-.37,155.55-1.22a7.63,7.63,0,0,1,7.75,7.49l0,2.69c-4.37.09-107.38,1.63-146,1.62-9.29,0-16-.09-18.31-.31Z" style="fill:#00D9BE"></path><g style="opacity:0.3"><path d="M167.18,398.38c8.73.82,106.43-.37,155.55-1.22a7.63,7.63,0,0,1,7.75,7.49l0,2.69c-4.37.09-107.38,1.63-146,1.62-9.29,0-16-.09-18.31-.31Z" style="fill:#fff"></path></g><path d="M326,412l-10.25-1.15a98.09,98.09,0,0,0-1-28.72l10.15-1.87A108.28,108.28,0,0,1,326,412Z" style="fill:#00D9BE"></path><g style="opacity:0.7000000000000001"><path d="M326,412l-10.25-1.15a98.09,98.09,0,0,0-1-28.72l10.15-1.87A108.28,108.28,0,0,1,326,412Z" style="fill:#fff"></path></g><path d="M244.32,415.13,234.07,414a97.75,97.75,0,0,0-1-28.72l10.15-1.87A107.94,107.94,0,0,1,244.32,415.13Z" style="fill:#00D9BE"></path><g style="opacity:0.7000000000000001"><path d="M244.32,415.13,234.07,414a97.75,97.75,0,0,0-1-28.72l10.15-1.87A107.94,107.94,0,0,1,244.32,415.13Z" style="fill:#fff"></path></g><path d="M195.6,366.84,223,382.35c18.87-.33,127.36-3.64,127.36-3.64l-28.25-14.89Z" style="fill:#00D9BE"></path><path d="M195.6,366.84,223,382.35c18.87-.33,127.36-3.64,127.36-3.64l-28.25-14.89Z" style="fill:#fff;opacity:0.5"></path><polygon points="195.6 366.84 194.52 371.55 221.41 386.82 349.38 382.95 350.36 378.71 223 382.35 195.6 366.84" style="fill:#00D9BE"></polygon><polygon points="195.6 366.84 194.52 371.55 221.41 386.82 349.38 382.95 350.36 378.71 223 382.35 195.6 366.84" style="fill:#fff;opacity:0.30000000000000004"></polygon><path d="M190,410.06c22.81,3.58,127.75-1,155-2.23a6.52,6.52,0,0,1,6.82,6.16l.22,3.83c-3.66.21-86.36,3.9-130.27,3.9-14.48,0-26.59-.41-33.34-1.47Z" style="fill:#00D9BE"></path><g style="opacity:0.5"><path d="M190,410.06c22.81,3.58,127.75-1,155-2.23a6.52,6.52,0,0,1,6.82,6.16l.22,3.83c-3.66.21-86.36,3.9-130.27,3.9-14.48,0-26.59-.41-33.34-1.47Z" style="fill:#fff"></path></g><g id="freepik--Character--inject-2--inject-74"><path d="M331.05,340.22c-12.64-11.3-39-8.89-39-8.89a22.25,22.25,0,0,0-6.7,2.16c-15.92-8.35-41-19.88-49.78-18.54l-59.66-3.58s-1.58,10.83.58,11c0,0,53.42,14.55,59.84,13.21,3.66-.76,29.71,16.67,39.38,26a21.55,21.55,0,0,0,6,4.09c11.22,11.89,35.43,10,41.32,5.69C332.52,364.45,331.05,340.22,331.05,340.22Z" style="fill:#00D9BE"></path><path d="M307.58,289c-1.33,1-2.55,1.85-3.82,2.71s-2.55,1.69-3.84,2.49c-2.61,1.61-16.79,11.68-23.5,12.16l-.67.14-.33,0c-2.94,0-5.58-.18-8.23-.4s-5.28-.5-7.9-.83-5.21-.69-7.81-1.1-5.2-.84-7.79-1.38l.44-5.86c5.21-.31,10.44-.43,15.62-.56l7.73-.18c2.54-.08,5.14-.18,7.41-.37l-1,.14c2.52-.78,17.28-10.38,19.66-11.9,1.23-.75,2.41-1.54,3.57-2.31s5.13-4.35,10.89-4.5Z" style="fill:#00D9BE"></path><path d="M307.58,289c-1.33,1-2.55,1.85-3.82,2.71s-2.55,1.69-3.84,2.49c-2.61,1.61-16.79,11.68-23.5,12.16l-.67.14-.33,0c-2.94,0-5.58-.18-8.23-.4s-5.28-.5-7.9-.83-5.21-.69-7.81-1.1-5.2-.84-7.79-1.38l.44-5.86c5.21-.31,10.44-.43,15.62-.56l7.73-.18c2.54-.08,5.14-.18,7.41-.37l-1,.14c2.52-.78,17.28-10.38,19.66-11.9,1.23-.75,2.41-1.54,3.57-2.31s5.13-4.35,10.89-4.5Z" style="opacity:0.1"></path><path d="M247.55,302.58c-4.3,3.33-10.36-.59-10.36-.59l4.83-7.18,6.29,3Z" style="fill:#ffc2bc"></path><path d="M242,294.81,237.19,302l-1.28-.46a3.38,3.38,0,0,1-1.76-4.94h0a5.19,5.19,0,0,1,4.78-2.54Z" style="fill:#ffc2bc"></path><path d="M311,341.77c-1.78.88-3.93.53-5.8-.13A12.41,12.41,0,0,1,299,337.3c-1.81-2.58-2.1-3.77-3.21-10.93-1.66,2.67-2.06,8.64-1.27,11.68s1.77,6.05,4,8.12a9.47,9.47,0,0,0,7,2.36,11.18,11.18,0,0,0,6.76-3,4.32,4.32,0,0,0,1.43-2.2,1.9,1.9,0,0,0-1.08-2.19c-1-.33-2,.45-2.72,1.18Z" style="opacity:0.30000000000000004"></path><path d="M294.9,324.11c8.6-21.18,4.59-26.05,5.93-36.92a12.44,12.44,0,0,1,10.39-10.77c5.46-.88,12.19-1.85,18.61-2.51.62-.06,5,.13,5.58.16,6.91.31,8.54,5.95,8.23,12.86-1.57,32.31-12.59,53.29-12.59,53.29s-15.79,6.41-26.2,4.67C295.18,343.27,290.64,333.9,294.9,324.11Z" style="fill:#00D9BE"></path><path d="M365.87,266.9c-7.35,7.78-14.79,14.71-22.37,22.27-2.12,2.12-7.06,1.58-9.56-.08s-2.94-5.53-2.55-8.5,1.33-5.3,4-6.63c24.72-12.25,33.72-33.18,38.43-38.54,1.78-.34,4.09-.88,5.8-.29s3.12,2.47,2.54,4.19C378.6,249.83,367.61,265.06,365.87,266.9Z" style="fill:#00D9BE"></path><path d="M375.66,236.27a55.33,55.33,0,0,0,.69-9.62,52.19,52.19,0,0,1,10.26,2.94c-1.64,3.1-3.1,6.1-5.48,8.78C379.42,238.29,377.17,237,375.66,236.27Z" style="fill:#ffc2bc"></path><path d="M376.35,226.65a14.11,14.11,0,0,1,2.06-4,4.58,4.58,0,0,1,5.45-1.33c1.09.45,2.21,1,3.18,1.4a2.6,2.6,0,0,1,1.35,3.71,35.27,35.27,0,0,0-2.53,4.63C381.71,231,379.55,229.08,376.35,226.65Z" style="fill:#ffc2bc"></path><path d="M315.5,265.8c1.05,4.64-3.27,15.39,2.89,15.66,5.49-.53,8.94-2.75,10-5.62-4-3.72-2.9-14.73-1.67-20.92Z" style="fill:#ffc2bc"></path><path d="M320.41,269.33a5.76,5.76,0,0,1-4.39.92,20.82,20.82,0,0,0-.13-3.35l7.3-5.63a15.07,15.07,0,0,1,.23,2.31A6.51,6.51,0,0,1,320.41,269.33Z" style="opacity:0.2;isolation:isolate"></path><path d="M316.12,273.3c0,9.6.63,16.52,9.67,19.73,7.89,2.8,16.29-.93,24.61-1.92s17.5-1.08,24.12,4.05c.78-3.46,7.38-10.13,8.17-13.59-9.7-2.87-23.32-3.37-33.28-1.63-4.88.85-7.49,4-15.43,6.09-10,2.6-7.79-8.26-7.85-10.12Z" style="fill:#00D9BE"></path><g style="opacity:0.4"><path d="M316.12,273.3c0,9.6.63,16.52,9.67,19.73,7.89,2.8,16.29-.93,24.61-1.92s17.5-1.08,24.12,4.05c.78-3.46,7.38-10.13,8.17-13.59-9.7-2.87-23.32-3.37-33.28-1.63-4.88.85-7.49,4-15.43,6.09-10,2.6-7.79-8.26-7.85-10.12Z"></path></g><path d="M374.52,295.16a6.11,6.11,0,0,1,4,4.47,8.34,8.34,0,0,1-1.26,7c1.14-.24,3.55-.61,3.55-.61a22.48,22.48,0,0,0,.31-5.62c.82,1.31.79,3.94.4,5.4l2.14-.38c.54-1.15.47-4.79-.07-5.68a8.33,8.33,0,0,1,1.05,5.42,12.69,12.69,0,0,0,3.08-.83,12.55,12.55,0,0,0-1.66-6c1.89.77,2.18,3.18,2.54,5.79a19.12,19.12,0,0,0,1.79-1,11.85,11.85,0,0,0-2.43-6.61c2.27.41,3.84,5.55,3.84,5.55.52-.47,1.19-1.17,1-1.85a15.78,15.78,0,0,0-3.2-5.41c2.06,1,2.77,2.45,3.61,4.34a6.56,6.56,0,0,0-2.34-6.44,5,5,0,0,1,2.56,2.49c.84-3.72-1.56-7.87-4.36-10.45a13.69,13.69,0,0,0-6.39-3.15c-2.79-.33-8.24,9.15-8.46,11.65C374,294.8,374.52,295.16,374.52,295.16Z" style="fill:#00D9BE"></path><path d="M314.84,277.28a17.16,17.16,0,0,0,10.55-9c.24-.51,1-.38,1.44,0a1.33,1.33,0,0,1,.33,1.54,2.43,2.43,0,0,1,1.29,2.83,6.16,6.16,0,0,1,.63,3.79,19.08,19.08,0,0,1-8.52,4.78,7.2,7.2,0,0,1-4.36-.1C314.83,280.5,314.55,278.72,314.84,277.28Z" style="fill:#00D9BE"></path><path d="M314.84,277.28a17.16,17.16,0,0,0,10.55-9c.24-.51,1-.38,1.44,0a1.33,1.33,0,0,1,.33,1.54,2.43,2.43,0,0,1,1.29,2.83,6.16,6.16,0,0,1,.63,3.79,19.08,19.08,0,0,1-8.52,4.78,7.2,7.2,0,0,1-4.36-.1C314.83,280.5,314.55,278.72,314.84,277.28Z" style="opacity:0.4"></path><path d="M326.66,284.19a49,49,0,0,1-12.51-3,9.12,9.12,0,0,1-4.06-2.58,5.77,5.77,0,0,1-.64-5.53,8.31,8.31,0,0,1,3.89-4.17,2.83,2.83,0,0,1,2.44.05c.21.8.37,1.56.58,2.35a18,18,0,0,0,8.8,1.18c1.18-.13,2.39.33,3.57.26s.88,2.12.09,2.95c1.47.48,1.46,2.71.31,3.74a2.77,2.77,0,0,1-.09,3.84A12.89,12.89,0,0,1,326.66,284.19Z" style="fill:#00D9BE"></path><path d="M326.66,284.19a49,49,0,0,1-12.51-3,9.12,9.12,0,0,1-4.06-2.58,5.77,5.77,0,0,1-.64-5.53,8.31,8.31,0,0,1,3.89-4.17,2.83,2.83,0,0,1,2.44.05c.21.8.37,1.56.58,2.35a18,18,0,0,0,8.8,1.18c1.18-.13,2.39.33,3.57.26s.88,2.12.09,2.95c1.47.48,1.46,2.71.31,3.74a2.77,2.77,0,0,1-.09,3.84A12.89,12.89,0,0,1,326.66,284.19Z" style="opacity:0.30000000000000004"></path><path d="M310.71,238.44c-7.67,4-8.12,16.07-6,23.1a10.43,10.43,0,0,0,18.18,3.64c3.83-4.55,3.45-9.26,3.52-17.35S318.38,234.42,310.71,238.44Z" style="fill:#ffc2bc"></path><path d="M306,245.89c1.31,2.22,5.37,5.15,7.78,6.06a13.09,13.09,0,0,1-3.71-10.24c.45,2.18,7.58,5.87,10.82,6.92a36.06,36.06,0,0,1-4.12-4.78c1.05,1.8,3.49,2.27,4.88,3.83a8.74,8.74,0,0,1,1.61,3.65A30.88,30.88,0,0,0,323,245a16.68,16.68,0,0,1,.92,10.68c.29-1.25,1,6.19,2.07,5.49,1.46-1,5.79-10.92,4.35-15.54-1.21-3.86-2.25-5.15-5.39-6.13a7.6,7.6,0,0,0,5.53-3.83c-1.71,1.52-10.73-.29-12.17-.79-3.72-1.32-6.5.22-9.8,2.35-1.27.82-4.73.68-4.78,2.29C303.64,241.55,305,244.21,306,245.89Z" style="fill:#263238"></path><path d="M328.37,250.91c-2.31-.08-4.07,2.81-4.54,4.84-.6,2.29.69,4.22,2.95,3.35a7.33,7.33,0,0,0,3.9-3.67C331.64,253.37,330.69,251,328.37,250.91Z" style="fill:#ffc2bc"></path><path d="M311.22,258.54s-1.84.9-3.15.07a24.87,24.87,0,0,0,2.18-6.19Z" style="fill:#ec837e"></path><path d="M315.62,248.17a4.59,4.59,0,0,0-3.34-1h0a.37.37,0,0,1-.41-.32.42.42,0,0,1,.34-.45,5.27,5.27,0,0,1,4,1.21h0a.39.39,0,0,1-.05.54.62.62,0,0,1-.17.11A.4.4,0,0,1,315.62,248.17Z" style="fill:#263238"></path><path d="M304.43,249.47h0a.36.36,0,0,1-.09-.51,4.06,4.06,0,0,1,3-1.94h0a.36.36,0,0,1,.34.37.39.39,0,0,1-.38.4,3.23,3.23,0,0,0-2.37,1.57.38.38,0,0,1-.32.18A.26.26,0,0,1,304.43,249.47Z" style="fill:#263238"></path><path d="M310.91,261.93a30.38,30.38,0,0,1,1.9,3c.17-.06.33-.12.48-.19,2.15-.85,2.8-2.11,2.86-3.25a4.35,4.35,0,0,0-.29-1.68,4.47,4.47,0,0,0-.44-.89,9.19,9.19,0,0,1-3.78,2.74C311.2,261.83,310.91,261.93,310.91,261.93Z" style="fill:#263238"></path><path d="M311.64,261.63l.29.43a.63.63,0,0,0,.77.23,5.93,5.93,0,0,0,3.06-2.27.61.61,0,0,0,0-.51,3.57,3.57,0,0,0-.33-.62A9.19,9.19,0,0,1,311.64,261.63Z" style="fill:#fff"></path><path d="M313.29,264.71c2.15-.85,2.8-2.11,2.86-3.25A6.38,6.38,0,0,0,314,263,3,3,0,0,0,313.29,264.71Z" style="fill:#dd5753"></path><path d="M307.11,252.29c-.42.06-.68.66-.57,1.31s.54,1.13,1,1.05.68-.65.58-1.3S307.54,252.23,307.11,252.29Z" style="fill:#263238"></path><path d="M314.54,251.3c-.43.06-.68.65-.58,1.3s.54,1.13,1,1.06.69-.66.58-1.31S315,251.23,314.54,251.3Z" style="fill:#263238"></path><path d="M331.05,340.22c-12.64-11.3-39-8.89-39-8.89a22.25,22.25,0,0,0-6.7,2.16c-15.92-8.35-41-19.88-49.78-18.54l-59.66-3.58s-1.58,10.83.58,11c0,0,53.42,14.55,59.84,13.21,3.66-.76,29.71,16.67,39.38,26a21.55,21.55,0,0,0,6,4.09c11.22,11.89,35.43,10,41.32,5.69C332.52,364.45,331.05,340.22,331.05,340.22Z" style="opacity:0.5"></path></g><path d="M345.54,232.35c.52.22.48.62.62,1.07a4.06,4.06,0,0,0-1.38-.17s-.27.85.15,1.1a2.45,2.45,0,0,1-1.68-.35,1.3,1.3,0,0,1-.24.94,2.5,2.5,0,0,1-1-1.58,2.33,2.33,0,0,1-.35.26h0c-.24.15-.56.29-.75.12a1.73,1.73,0,0,1-.17-1.56,2.44,2.44,0,0,1-1.55.05s-.38-1.06.13-1.26a2.77,2.77,0,0,1-1.33-.53,1.9,1.9,0,0,1,.2-.34,3.38,3.38,0,0,0,.3-.47,2.27,2.27,0,0,1-1.06-.36c.23-.3.29-.49.69-.62a3.56,3.56,0,0,1-1.33-.35c0-.35.74-.74,1.15-.6a1.25,1.25,0,0,1-.34-.34,2,2,0,0,1-.27-.67c.31-.23,1,0,1.33.17-.5-.25.1-1.06.1-1.06a3.78,3.78,0,0,1,1.48.52c-.08-.33.53-1,.53-1a2.68,2.68,0,0,1,.9.62c0-.32.42-.56.65-.79.38.24.48.55.87.81.12-.41.65-.42,1.12-.43a1.21,1.21,0,0,1,.21,1.23,2,2,0,0,1,1.43.37,2.71,2.71,0,0,1-.56,1c1.17.1,1.08.31,1.31.58-.33.4-.28.64-1,.71.8.23.82.64,1.44.89-.52.26-.79.73-1.31.79.57.25.88.43,1.05,1A1.84,1.84,0,0,1,345.54,232.35Z" style="fill:#00D9BE"></path><g style="opacity:0.9"><path d="M345.54,232.35c.52.22.48.62.62,1.07a4.06,4.06,0,0,0-1.38-.17s-.27.85.15,1.1a2.45,2.45,0,0,1-1.68-.35,1.3,1.3,0,0,1-.24.94,2.5,2.5,0,0,1-1-1.58,2.33,2.33,0,0,1-.35.26h0c-.24.15-.56.29-.75.12a1.73,1.73,0,0,1-.17-1.56,2.44,2.44,0,0,1-1.55.05s-.38-1.06.13-1.26a2.77,2.77,0,0,1-1.33-.53,1.9,1.9,0,0,1,.2-.34,3.38,3.38,0,0,0,.3-.47,2.27,2.27,0,0,1-1.06-.36c.23-.3.29-.49.69-.62a3.56,3.56,0,0,1-1.33-.35c0-.35.74-.74,1.15-.6a1.25,1.25,0,0,1-.34-.34,2,2,0,0,1-.27-.67c.31-.23,1,0,1.33.17-.5-.25.1-1.06.1-1.06a3.78,3.78,0,0,1,1.48.52c-.08-.33.53-1,.53-1a2.68,2.68,0,0,1,.9.62c0-.32.42-.56.65-.79.38.24.48.55.87.81.12-.41.65-.42,1.12-.43a1.21,1.21,0,0,1,.21,1.23,2,2,0,0,1,1.43.37,2.71,2.71,0,0,1-.56,1c1.17.1,1.08.31,1.31.58-.33.4-.28.64-1,.71.8.23.82.64,1.44.89-.52.26-.79.73-1.31.79.57.25.88.43,1.05,1A1.84,1.84,0,0,1,345.54,232.35Z" style="fill:#fff"></path></g><path d="M332.08,248c-.75,3.19-.44,7-3,9-2.59-1.62-4.63-4-6.75-6.17s-4.44-4.36-7.32-5.4-6.42-.75-8.54,1.45c-1.17,1.2-2.54,3.09-4,2.31a2.7,2.7,0,0,1-1.07-2.5,13.75,13.75,0,0,1,3.16-8.61,19.31,19.31,0,0,1,23.26,4.7c1.35,1.57,2.45,3.34,3.9,4.82C331.82,247.77,332,247.9,332.08,248Z" style="fill:#00D9BE"></path><path d="M332.08,248c-.75,3.19-.44,7-3,9-2.59-1.62-4.63-4-6.75-6.17s-4.44-4.36-7.32-5.4-6.42-.75-8.54,1.45c-1.17,1.2-2.54,3.09-4,2.31a2.7,2.7,0,0,1-1.07-2.5,13.75,13.75,0,0,1,3.16-8.61,19.31,19.31,0,0,1,23.26,4.7c1.35,1.57,2.45,3.34,3.9,4.82C331.82,247.77,332,247.9,332.08,248Z" style="fill:#fff;opacity:0.8"></path><path d="M341.64,233.63c-.47,2.11-1.51,4.66-3.13,5.77a15.16,15.16,0,0,0-6.38,8.37c0,.09,0,.16-.05.24-.13-.11-.26-.24-.38-.36-1.45-1.48-2.55-3.25-3.9-4.82a19.31,19.31,0,0,0-23.26-4.7,20.25,20.25,0,0,1,9.63-6.55c6.91-2.2,13.4-.13,20.29-.93,1.32-.15,2.5-.41,3.71-.54a1.9,1.9,0,0,0-.2.34,2.77,2.77,0,0,0,1.33.53c-.51.2-.13,1.26-.13,1.26a2.44,2.44,0,0,0,1.55-.05,1.73,1.73,0,0,0,.17,1.56C341.08,233.92,341.4,233.78,341.64,233.63Z" style="fill:#00D9BE"></path><path d="M341.64,233.63c-.47,2.11-1.51,4.66-3.13,5.77a15.16,15.16,0,0,0-6.38,8.37c0,.09,0,.16-.05.24-.13-.11-.26-.24-.38-.36-1.45-1.48-2.55-3.25-3.9-4.82a19.31,19.31,0,0,0-23.26-4.7,20.25,20.25,0,0,1,9.63-6.55c6.91-2.2,13.4-.13,20.29-.93,1.32-.15,2.5-.41,3.71-.54a1.9,1.9,0,0,0-.2.34,2.77,2.77,0,0,0,1.33.53c-.51.2-.13,1.26-.13,1.26a2.44,2.44,0,0,0,1.55-.05,1.73,1.73,0,0,0,.17,1.56C341.08,233.92,341.4,233.78,341.64,233.63Z" style="opacity:0.4"></path><path d="M322.35,369.35a12.81,12.81,0,0,1-6.16,4,16.6,16.6,0,0,1-9.77,0c-4.43-1.43-7.82-5.15-9.75-9.42-5.16,10.14-11.37,20-16.48,29.59-1.8,3.36-5.58,1.42-9-.45s-1.2.2-3.42-2.9c3.1-15.06,5.44-26.22,10.65-40.69,1.95-5.36,8.12-17.51,10.74-22.57,2.15-4.15,8.28-6.28,12.67-2.86,2.61,1.18,5.71,3.83,10.19,9.65a83.86,83.86,0,0,1,9.75,15.91C325.56,357.8,326.18,364.66,322.35,369.35Z" style="fill:#00D9BE"></path><g style="opacity:0.4"><path d="M322.35,369.35a12.81,12.81,0,0,1-6.16,4,16.6,16.6,0,0,1-9.77,0c-4.43-1.43-7.82-5.15-9.75-9.42-5.16,10.14-11.37,20-16.48,29.59-1.8,3.36-5.58,1.42-9-.45s-1.2.2-3.42-2.9c3.1-15.06,5.44-26.22,10.65-40.69,1.95-5.36,8.12-17.51,10.74-22.57,2.15-4.15,8.28-6.28,12.67-2.86,2.61,1.18,5.71,3.83,10.19,9.65a83.86,83.86,0,0,1,9.75,15.91C325.56,357.8,326.18,364.66,322.35,369.35Z"></path></g><path d="M277.61,393.81c.29,0,.45.32.39.67l-3.91,15.81a1.66,1.66,0,0,1-1.47,1.38l-.14,0c-1.9-.31-2.06-.4-3.16-.6a7.5,7.5,0,0,0-3.43.16c-4,1.19-11.5.75-13.91-.23-2.69-1.1-2.28-5,.57-6.24,4.58-.56,12.22-7.14,15.59-10.7C268.58,393.75,277.61,393.81,277.61,393.81Z" style="fill:#263238"></path><path d="M261.16,404.41a1.23,1.23,0,0,0,1.12-.09,3.41,3.41,0,0,0,1.13-2v0a16.32,16.32,0,0,0,.45-2.77v0s0,0,0-.06v-.07a.29.29,0,0,0-.13-.14.22.22,0,0,0-.24.06c-.1.09-.42.45-.82.93l-.56.69c-.78,1-1.58,2.27-1.41,3A.69.69,0,0,0,261.16,404.41Zm.17-.43a.27.27,0,0,1-.19-.21.65.65,0,0,1,0-.41,11,11,0,0,1,1.68-2.67,6.48,6.48,0,0,1,.54-.62c-.06.53-.14,1-.23,1.45h0a3.91,3.91,0,0,1-1.11,2.4A.82.82,0,0,1,261.33,404Z" style="fill:#00D9BE"></path><path d="M259.64,401.61c.54.25,1.55-.13,2.48-.67.23-.14.46-.29.66-.44a6,6,0,0,0,1.05-.9l0-.05v0s0,0,0-.06v-.07a.14.14,0,0,0,0-.06.2.2,0,0,0-.19-.11,8.38,8.38,0,0,0-1.51-.14,4.09,4.09,0,0,0-2.23.51,1.49,1.49,0,0,0-.65,1.07A.77.77,0,0,0,259.64,401.61Zm.15-.43c-.05,0-.19-.08-.13-.47l.06-.1v0a1,1,0,0,1,.41-.67,4.8,4.8,0,0,1,2.2-.45h0a5.58,5.58,0,0,1,.81.09,4.57,4.57,0,0,1-.56.49C261.62,400.78,260.26,401.41,259.79,401.18Z" style="fill:#00D9BE"></path><polygon points="278.34 399.52 264.72 393.55 266.35 388.09 281.43 395.08 278.34 399.52" style="fill:#263238"></polygon><path d="M174,313.81l.08,8.33a.74.74,0,0,1-.63.75l-11.43,2.57a1.51,1.51,0,0,1-1.66-1.33V324c0-3.61.18-5.36.1-9.94-.05-2.8-1.5-11.37-.83-15.19s4.51-3.35,4.57-1.7c.17,5.32,3.94,11.27,8.15,14.14C172.76,311.7,174,313.24,174,313.81Z" style="fill:#263238"></path><path d="M165.31,306.07a1.22,1.22,0,0,0-.08,1.14,3.42,3.42,0,0,0,1.8,1.44h0a16.37,16.37,0,0,0,2.7.88h.15a.26.26,0,0,0,.16-.11.23.23,0,0,0,0-.25c-.08-.11-.39-.49-.8-1l-.61-.67c-.89-.95-2-1.94-2.74-1.88A.67.67,0,0,0,165.31,306.07Zm.41.24a.22.22,0,0,1,.23-.15.7.7,0,0,1,.4.09,11.32,11.32,0,0,1,2.42,2.1c.18.21.37.43.53.65-.52-.15-1-.3-1.42-.46h0a3.94,3.94,0,0,1-2.22-1.48A.78.78,0,0,1,165.72,306.31Z" style="fill:#00D9BE"></path><path d="M168.35,305c-.34.5-.12,1.58.28,2.59.11.25.22.5.33.73a6,6,0,0,0,.75,1.19l0,0H170a.26.26,0,0,0,.14-.18,8.67,8.67,0,0,0,.38-1.49,4.18,4.18,0,0,0-.16-2.31,1.52,1.52,0,0,0-1-.83A.8.8,0,0,0,168.35,305Zm.41.22s.1-.18.49-.06l.09.08h0a1,1,0,0,1,.6.52,4.85,4.85,0,0,1,.11,2.27h0a7.94,7.94,0,0,1-.22.8,4.49,4.49,0,0,1-.4-.65C168.87,307.1,168.46,305.64,168.76,305.21Z" style="fill:#00D9BE"></path><polygon points="178.84 308.09 177.7 324.89 172.06 323.69 173.39 308.67 178.84 308.09" style="fill:#263238"></polygon><path d="M188.39,420a21.09,21.09,0,0,1-16.68-14l-.14-.43c-1.65-4.92-6-18,3.23-32.21l8.65,5.63c-6.54,10-3.54,19-2.1,23.3l.15.46a10.86,10.86,0,0,0,8.49,7Z" style="fill:#00D9BE"></path><g style="opacity:0.5"><path d="M188.39,420a21.09,21.09,0,0,1-16.68-14l-.14-.43c-1.65-4.92-6-18,3.23-32.21l8.65,5.63c-6.54,10-3.54,19-2.1,23.3l.15.46a10.86,10.86,0,0,0,8.49,7Z" style="fill:#fff"></path></g><path d="M235.41,350.54a8,8,0,0,0-.17-2.53c-.32-1.22-.73-2.85-2-3.19-20.65-5.74-59.39,4.73-81.42,12.88-.1,0-23.3,9.86-52,21.42-.09,2.61-.26,5.11.68,7.55.27.74.82,1.59,1.6,1.51,18.47-2,38.34-6.89,52.56-15.83,13.1.38,27.76-1.73,47.42-4.3,3.55-.47,23.89-4,32-8.22C234.87,358.2,235.28,352.37,235.41,350.54Zm-80.74,21.81a.19.19,0,0,1,.11-.08Z" style="fill:#00D9BE"></path><path d="M235.41,350.54a8,8,0,0,0-.17-2.53c-.32-1.22-.73-2.85-2-3.19-20.65-5.74-59.39,4.73-81.42,12.88-.1,0-23.3,9.86-52,21.42-.09,2.61-.26,5.11.68,7.55.27.74.82,1.59,1.6,1.51,18.47-2,38.34-6.89,52.56-15.83,13.1.38,27.76-1.73,47.42-4.3,3.55-.47,23.89-4,32-8.22C234.87,358.2,235.28,352.37,235.41,350.54Zm-80.74,21.81a.19.19,0,0,1,.11-.08Z" style="opacity:0.1"></path><path d="M128,384l-28.75,6.08a4,4,0,0,1-1,.64,7.16,7.16,0,0,1-4.86.73,5.44,5.44,0,0,1-3.79-3,33.14,33.14,0,0,1-1-4.8c-.58-2.66-2.21-4.94-3.53-7.32-1.49-2.65-2.65-5.8-1.38-8.7a2.74,2.74,0,0,1,1.64-1.54c1.49-.48,2.39.59,3.18,1.55,2.91,3.54,11.21,11.46,11.21,11.46l23-10.18,1.86,2.25a16.91,16.91,0,0,1,3.18,5.73C129.34,381.49,128,384,128,384Z" style="fill:#263238"></path><path d="M167.29,408.73C159.67,408,150,397.16,149,386.39c-.69-7-1.13-14.53,2.92-21a28.94,28.94,0,0,1,2.14-3l8,6.54c-.5.62-4.32,4.11-3.16,15.69.76,7.63,5.49,13.78,9,14.11Z" style="fill:#00D9BE"></path><g style="opacity:0.3"><path d="M167.29,408.73C159.67,408,150,397.16,149,386.39c-.69-7-1.13-14.53,2.92-21a28.94,28.94,0,0,1,2.14-3l8,6.54c-.5.62-4.32,4.11-3.16,15.69.76,7.63,5.49,13.78,9,14.11Z" style="fill:#fff"></path></g><path d="M180.53,375.58l-5.74-3.73a37.34,37.34,0,0,1,10-10.36c7-5.07,21.53-4.63,30.21-1.73h0a5.77,5.77,0,0,1-6.8,3.82c-5.35-1.28-11.84-1.71-18.36,2.13C185.37,368.33,182.83,372.05,180.53,375.58Z" style="fill:#263238"></path><path d="M166.32,366.29l-4.79-3.93c7.54-8.75,23-13.66,41.4-11.69h0a6.94,6.94,0,0,1-7.19,4.73C185,354.45,169.92,360,166.32,366.29Z" style="fill:#263238"></path><polygon points="187.99 373.26 182.38 372.84 176.86 382.59 182.87 382.22 187.99 373.26" style="fill:#00D9BE"></polygon><polygon points="187.99 373.26 182.38 372.84 176.86 382.59 182.87 382.22 187.99 373.26" style="opacity:0.6000000000000001"></polygon><path d="M152.08,353.16l6.34.33s22.47,15.66,29.57,19.77l-5.61-.42S165.47,363.54,152.08,353.16Z" style="fill:#00D9BE"></path><path d="M152.08,353.16l6.34.33s22.47,15.66,29.57,19.77l-5.61-.42S165.47,363.54,152.08,353.16Z" style="fill:#fff;opacity:0.1"></path><polygon points="182.38 372.84 152.08 353.16 145.88 361.37 176.86 382.59 182.38 372.84" style="fill:#00D9BE"></polygon><polygon points="182.38 372.84 152.08 353.16 145.88 361.37 176.86 382.59 182.38 372.84" style="opacity:0.5"></polygon><path d="M182.42,389.53C167.24,400.21,141,404.08,122.54,406c-.79.08-1.32-.77-1.6-1.52-.93-2.44-.76-4.93-.66-7.54,13.69-5.11,46.12-16.85,59.8-22,4.55-1.69,35.39-10.26,43.79-12.1q10.17-2.25,20.51-3.66l1.35-.36a.53.53,0,0,1-.35.46H245a.53.53,0,0,0,.39,0,11.93,11.93,0,0,1,8.43,3.58,7.36,7.36,0,0,1,1.93,3.19,4.49,4.49,0,0,1,.17,2.53C246.48,397.13,182.34,389.55,182.42,389.53Z" style="fill:#00D9BE"></path><path d="M245.38,359.31a.53.53,0,0,1-.39,0Z" style="fill:#263238"></path><path d="M140.57,404.55l-27.63,7.22a7.27,7.27,0,0,1-4.89.57,5.45,5.45,0,0,1-3.69-3.14,18.66,18.66,0,0,1-.68-3.59c-.48-2.68-2-5-3.29-7.42s-2.23-5.21-1.45-7.82c.42-1.4,1.7-2.79,3.13-2.46a4,4,0,0,1,2,1.69c2.27,3,5.57,5.58,8,8.54l26.53-11S145.46,399.85,140.57,404.55Z" style="fill:#263238"></path><path d="M280.16,317.8a132,132,0,0,0-10.35,29.07c-2.14,10.06-.05,17.85-7.47,25,0,0-20.49,14.62-29.87,16.16,0,0,1.84-15.13-6.41-25.63-6.75-8.6-17.39-13.56-28.53-14.64l19.94-5.1a115.6,115.6,0,0,0,9.34-18.77c1.29-3.35,2.26-6.8,3.49-10.17a68.33,68.33,0,0,1,6.66-13.4c1.87-2.92,4.21-5.87,7.54-6.82,4.71-1.35,27.28,0,35.69,14.34C281.94,310.78,281.68,314.7,280.16,317.8Z" style="fill:#00D9BE"></path><g style="opacity:0.2"><path d="M280.16,317.8a132,132,0,0,0-10.35,29.07c-2.14,10.06-.05,17.85-7.47,25,0,0-20.49,14.62-29.87,16.16,0,0,1.84-15.13-6.41-25.63-6.75-8.6-17.39-13.56-28.53-14.64l19.94-5.1a115.6,115.6,0,0,0,9.34-18.77c1.29-3.35,2.26-6.8,3.49-10.17a68.33,68.33,0,0,1,6.66-13.4c1.87-2.92,4.21-5.87,7.54-6.82,4.71-1.35,27.28,0,35.69,14.34C281.94,310.78,281.68,314.7,280.16,317.8Z"></path></g><path d="M233,358.84a27.56,27.56,0,0,1,5.13,8.7c1.49,4.56,1.29,10.81,1.29,10.81s14.39-8.13,16.64-10.81,1.75-14.65-6.82-17.09Z" style="fill:#fff;opacity:0.5"></path><path d="M277.49,316.61s-6.84,18.78-11.52,22.61-11.3-2.9-11.3-2.9S274.8,325.41,277.49,316.61Z" style="opacity:0.2"></path><path d="M265.09,283c-2,4.79-4.44,11.91-1.62,16,0,0-1.22,5.06-16.47,7.7-3.62-8.34.88-10.86.88-10.86,5.86-.2,6.17-2.5,6-6.58Z" style="fill:#ffbfb9"></path><path d="M260.54,285.45l-6.61,3.73a16,16,0,0,1-.08,2.85c2.21.13,5.92-1,6.85-3.23A6.8,6.8,0,0,0,260.54,285.45Z" style="opacity:0.2;isolation:isolate"></path><path d="M250.22,270.33a11.53,11.53,0,0,0,.05,5.29,5.34,5.34,0,0,1,1.2-2.5,45,45,0,0,1,3.24-4.5c5.49-5.91.41-4.19-1.49-3.1C251.7,266.4,250.67,268.64,250.22,270.33Z" style="fill:#263238"></path><path d="M266.86,286.11c-14.2,16.28-15.1,5.91-11,3.5,3.31-1.93-1.7-1.67-2.6-1.85a4,4,0,0,0-2.63.64A13.39,13.39,0,0,0,243.9,300a8.28,8.28,0,0,0,7.38,7.94,9.87,9.87,0,0,0,3.07-.17c12.37-3.07,13.33-16.55,13.41-18.38C267.82,287.91,268.15,286.81,266.86,286.11Z" style="fill:#00D9BE"></path><path d="M242,316.26c-3,5.17-4.23,6.43-8.3,10.79q-10.77,11.49-22.25,22.32c-.4.38-.67.76-1,1.08a13.29,13.29,0,0,0-.68-2.39,10.79,10.79,0,0,0-4.41-5.39,12.45,12.45,0,0,0-4.82-1.53,146.19,146.19,0,0,0,15.06-15.32c6.91-8.36,12.34-19.18,23.12-27.66,1.61-1.26,3.95-2.38,5.55-1.12,1.09.11,3.09,1.22,3.05,2.31A37,37,0,0,1,242,316.26Z" style="fill:#00D9BE"></path><path d="M242,316.26c-3,5.17-4.23,6.43-8.3,10.79q-10.77,11.49-22.25,22.32c-.4.38-.67.76-1,1.08a13.29,13.29,0,0,0-.68-2.39,10.79,10.79,0,0,0-4.41-5.39,12.45,12.45,0,0,0-4.82-1.53,146.19,146.19,0,0,0,15.06-15.32c6.91-8.36,12.34-19.18,23.12-27.66,1.61-1.26,3.95-2.38,5.55-1.12,1.09.11,3.09,1.22,3.05,2.31A37,37,0,0,1,242,316.26Z" style="opacity:0.1"></path><path d="M266.86,286.11c-14.2,16.28-15.1,5.91-11,3.5,3.31-1.93-1.7-1.67-2.6-1.85a4,4,0,0,0-2.63.64A13.39,13.39,0,0,0,243.9,300a8.28,8.28,0,0,0,7.38,7.94,9.87,9.87,0,0,0,3.07-.17c12.37-3.07,13.33-16.55,13.41-18.38C267.82,287.91,268.15,286.81,266.86,286.11Z" style="fill:#fff;opacity:0.4"></path><path d="M256.63,300.52s-4.48,3-5.57,5.33-.76,1.93-.76,1.93a11.79,11.79,0,0,0,2.63.2A9.67,9.67,0,0,1,256.63,300.52Z" style="opacity:0.1"></path><path d="M243.94,328.79c-2.86,4.46-5.43,9.57-8.76,13.69a12.31,12.31,0,0,1-8.63-6.1A94.47,94.47,0,0,0,234,323.84a40.8,40.8,0,0,0,3.42-8.91c.47-2.05.69-4.16,1.14-6.22a27.81,27.81,0,0,1,7.48-13.57c1.63-1.62,5.45-2.56,7.74-2.7-.16,1.87-.23,2.76,1.65,2.62a9.49,9.49,0,0,0,4.36-2.2c-.1,0,3.56,3.66-1.54,6.57C247.72,305.46,249,320.92,243.94,328.79Z" style="fill:#00D9BE"></path><path d="M243.94,328.79c-2.86,4.46-5.43,9.57-8.76,13.69a12.31,12.31,0,0,1-8.63-6.1A94.47,94.47,0,0,0,234,323.84a40.8,40.8,0,0,0,3.42-8.91c.47-2.05.69-4.16,1.14-6.22a27.81,27.81,0,0,1,7.48-13.57c1.63-1.62,5.45-2.56,7.74-2.7-.16,1.87-.23,2.76,1.65,2.62a9.49,9.49,0,0,0,4.36-2.2c-.1,0,3.56,3.66-1.54,6.57C247.72,305.46,249,320.92,243.94,328.79Z" style="fill:#fff;opacity:0.5"></path><path d="M253.28,294.6a4.06,4.06,0,0,0-3.25,1.88Z" style="opacity:0.1"></path><path d="M254.16,295.42a7.4,7.4,0,0,0-3.18,4.05Z" style="opacity:0.1"></path><path d="M263.15,293.51a9.85,9.85,0,0,0,3.33,2.21c3.38,1.1,7.27-1.49,10.52,0,.47.21.9.51,1.38.71a6.49,6.49,0,0,0,2.05.4c2.5.16,1.09-2.27,3.76-2.61,1.59-.2,3.21.12,4.82.08a12.71,12.71,0,0,0,8.15-3.48,17.8,17.8,0,0,0,4.7-7.63,5.46,5.46,0,0,0,.36-2.25,2.25,2.25,0,0,0-1.2-1.84s.4,2.17-2.32,2.24c-1.7,0-1.73-1.35-1.84-1.17,0,0,1.72-.29,2.24-1a4.49,4.49,0,0,0-.47-5.39c-1.12-1.29-3.37-1.91-4.48-.6a1.28,1.28,0,0,1,2.1.43,2,2,0,0,1-.93,2.23,4.48,4.48,0,0,1-2.53.5,33.91,33.91,0,0,1-5.51-.61c-6.15-1.27-7.5,5.88-12.29,6.11a3.75,3.75,0,0,1-2.53-.6,1.62,1.62,0,0,1-.28-2.33,12.66,12.66,0,0,0-10.29,5.61,4.3,4.3,0,0,0-.52,1.26,8.73,8.73,0,0,0,1.7,7.66Z" style="fill:#263238"></path><path d="M272.4,278.4c-3.59,7.12-5,10.2-10.26,12.36-8,3.26-15.94-2.72-14.55-10.76,1.26-7.24,6.94-17.7,15.33-17.49a10.88,10.88,0,0,1,9.48,15.89Z" style="fill:#ffbfb9"></path><path d="M259.93,275.3c-.26.6-.79.94-1.17.78s-.5-.79-.25-1.38.79-.94,1.17-.78S260.14,274.73,259.93,275.3Z" style="fill:#263238"></path><path d="M253.2,272.43c-.26.6-.78.94-1.17.78s-.5-.8-.25-1.39.79-.94,1.17-.77S253.45,271.83,253.2,272.43Z" style="fill:#263238"></path><path d="M254.81,274.4a17.55,17.55,0,0,1-3.76,2.88,2.81,2.81,0,0,0,1.95,1.31Z" style="fill:#e9853e"></path><path d="M263.21,275.12a.38.38,0,0,1-.29-.35,4.5,4.5,0,0,0-2-3,.39.39,0,0,1-.13-.53.36.36,0,0,1,.51-.13h0a5.14,5.14,0,0,1,2.41,3.57.37.37,0,0,1-.35.4h-.12Z" style="fill:#263238"></path><path d="M252.52,268.46a.4.4,0,0,1-.28-.27.39.39,0,0,1,.26-.48,3.75,3.75,0,0,1,3.46.62.36.36,0,0,1,0,.51l0,0a.38.38,0,0,1-.52,0h0a3,3,0,0,0-2.72-.43A.41.41,0,0,1,252.52,268.46Z" style="fill:#263238"></path><path d="M267.91,282a4.48,4.48,0,0,1,1.81-1.3c.38-.17,2.06,0,2.17.42a1.65,1.65,0,0,1-.05.73l-.9,3.89a5.9,5.9,0,0,0,2-7.2,3,3,0,0,0-.45-.75C269.91,274.71,268.08,280.19,267.91,282Z" style="fill:#263238"></path><path d="M272,284.88a5.72,5.72,0,0,1-4,1.84c-2,.07-2.54-1.84-1.59-3.5.87-1.48,3-3.31,4.79-2.62a2.57,2.57,0,0,1,1.39,3.36A2.47,2.47,0,0,1,272,284.88Z" style="fill:#ffbfb9"></path><path d="M252.19,281.06s2.1.07,7.48,2.11c-1.23,2.13-2.9,3.6-5.66,2.56-1.43-.33-2.28-2.27-1.89-4.34C252.14,281.28,252.17,281.17,252.19,281.06Z" style="fill:#263238"></path><path d="M255.77,284.31a3.91,3.91,0,0,0-3.31,0,2.85,2.85,0,0,0,1.54,1.35,3.85,3.85,0,0,0,3.3,0A2.75,2.75,0,0,0,255.77,284.31Z" style="fill:#dd5753"></path><path d="M252.46,281.08a1.68,1.68,0,0,0,.54,1.49,21.64,21.64,0,0,0,4.93,1.2,1.51,1.51,0,0,0,1.51-.72A34,34,0,0,0,252.46,281.08Z" style="fill:#fafafa"></path><path d="M252.73,270.92a1,1,0,0,1-.82-1.05,1.15,1.15,0,0,0,.64,1.52C252.61,271.26,252.66,271.06,252.73,270.92Z" style="fill:#263238"></path><path d="M259.45,273.84a1,1,0,0,1-.82-1,1.14,1.14,0,0,0,.63,1.52C259.33,274.18,259.38,274,259.45,273.84Z" style="fill:#263238"></path><path d="M210.41,350.45a2.17,2.17,0,0,1-1.29.72s-7.19,1.43-8.8-.14-.7-9.09-.7-9.09l.88-.8a12.45,12.45,0,0,1,4.82,1.53,10.79,10.79,0,0,1,4.41,5.39A13.29,13.29,0,0,1,210.41,350.45Z" style="fill:#00D9BE"></path><path d="M210.41,350.45a2.17,2.17,0,0,1-1.29.72s-7.19,1.43-8.8-.14-.7-9.09-.7-9.09l.88-.8a12.45,12.45,0,0,1,4.82,1.53,10.79,10.79,0,0,1,4.41,5.39A13.29,13.29,0,0,1,210.41,350.45Z" style="fill:#fff;opacity:0.1"></path><path d="M267.38,290.4a3.9,3.9,0,0,1,.49,1.33,4.59,4.59,0,0,1-.16,1.22,5.87,5.87,0,0,0,1.16,4.91,4.21,4.21,0,0,0,4.71,1.22,1.3,1.3,0,0,0,.66,1.36,3.39,3.39,0,0,0,1.57.37,5.77,5.77,0,0,0,2-.13,6.4,6.4,0,0,0,1.92-1.12,5.32,5.32,0,0,0,2.16-2.45,7.33,7.33,0,0,0-3.06.95c-1,.39-2.34.48-3-.38a4.05,4.05,0,0,1-.54-1.69.52.52,0,0,0-.2-.35.53.53,0,0,0-.39,0,11.75,11.75,0,0,1-2.34.57,1,1,0,0,1-.56,0,1,1,0,0,1-.37-.4,6.66,6.66,0,0,1-1-3.31,17.76,17.76,0,0,0,0-3.42,14.31,14.31,0,0,0-1-2.38,7.91,7.91,0,0,1,.1-6.56c.71-1.49,1.93-2.9,1.75-4.54a5.63,5.63,0,0,0-1-2.28,2.38,2.38,0,0,0-.71-.83,1.68,1.68,0,0,0-1.86.2c-1.11.84-1.28,2.41-1.63,3.67a19,19,0,0,0-.73,4.68A19.44,19.44,0,0,0,267.38,290.4Z" style="fill:#263238"></path><path d="M276.13,279.44a4.61,4.61,0,0,0-1.85,1.95c-.12.34-.69.38-1.1.18a2.89,2.89,0,0,1-.94-.9,129.29,129.29,0,0,0-8.93-10.51,19.77,19.77,0,0,0-4.39-3.74,7.86,7.86,0,0,0-5.7-.9,8.52,8.52,0,0,1,1.46-3.56,21.54,21.54,0,0,1,12.24,5c3.28,2.78,5.51,6.41,7.68,10l1.36,2.25Z" style="fill:#00D9BE"></path><path d="M276.13,279.44a4.61,4.61,0,0,0-1.85,1.95c-.12.34-.69.38-1.1.18a2.89,2.89,0,0,1-.94-.9,129.29,129.29,0,0,0-8.93-10.51,19.77,19.77,0,0,0-4.39-3.74,7.86,7.86,0,0,0-5.7-.9,8.52,8.52,0,0,1,1.46-3.56,21.54,21.54,0,0,1,12.24,5c3.28,2.78,5.51,6.41,7.68,10l1.36,2.25Z" style="fill:#fff;opacity:0.8"></path><path d="M283,269.61a2.4,2.4,0,0,1-1.68-.36,1.25,1.25,0,0,1-.24.94,2.47,2.47,0,0,1-1-1.57s-.74.69-1.11.39a1.78,1.78,0,0,1-.16-1.56,2.41,2.41,0,0,1-1.54.05s-.39-1.07.12-1.27a2.8,2.8,0,0,1-1.33-.52c.13-.29.36-.52.5-.81a2.27,2.27,0,0,1-1.06-.36c.22-.3.29-.49.69-.62a3.56,3.56,0,0,1-1.33-.35c0-.36.74-.75,1.15-.6a1.16,1.16,0,0,1-.33-.34,1.89,1.89,0,0,1-.28-.67c.31-.24,1,0,1.33.16-.5-.24.11-1.05.11-1.05a3.75,3.75,0,0,1,1.47.52c-.08-.33.53-1,.53-1a2.66,2.66,0,0,1,.9.63c0-.33.42-.56.65-.8.39.25.48.56.87.81.12-.4.65-.42,1.12-.42a1.19,1.19,0,0,1,.21,1.22,2,2,0,0,1,1.43.37,2.69,2.69,0,0,1-.56,1c1.17.1,1.08.3,1.3.57-.32.4-.28.65-1,.72.8.22.82.64,1.44.88-.51.27-.79.73-1.32.8.57.24.89.43,1.06,1a1.79,1.79,0,0,1-1.29.21c.51.21.48.61.62,1.07a4.26,4.26,0,0,0-1.39-.18S282.6,269.35,283,269.61Z" style="fill:#00D9BE"></path><g style="opacity:0.8"><path d="M283,269.61a2.4,2.4,0,0,1-1.68-.36,1.25,1.25,0,0,1-.24.94,2.47,2.47,0,0,1-1-1.57s-.74.69-1.11.39a1.78,1.78,0,0,1-.16-1.56,2.41,2.41,0,0,1-1.54.05s-.39-1.07.12-1.27a2.8,2.8,0,0,1-1.33-.52c.13-.29.36-.52.5-.81a2.27,2.27,0,0,1-1.06-.36c.22-.3.29-.49.69-.62a3.56,3.56,0,0,1-1.33-.35c0-.36.74-.75,1.15-.6a1.16,1.16,0,0,1-.33-.34,1.89,1.89,0,0,1-.28-.67c.31-.24,1,0,1.33.16-.5-.24.11-1.05.11-1.05a3.75,3.75,0,0,1,1.47.52c-.08-.33.53-1,.53-1a2.66,2.66,0,0,1,.9.63c0-.33.42-.56.65-.8.39.25.48.56.87.81.12-.4.65-.42,1.12-.42a1.19,1.19,0,0,1,.21,1.22,2,2,0,0,1,1.43.37,2.69,2.69,0,0,1-.56,1c1.17.1,1.08.3,1.3.57-.32.4-.28.65-1,.72.8.22.82.64,1.44.88-.51.27-.79.73-1.32.8.57.24.89.43,1.06,1a1.79,1.79,0,0,1-1.29.21c.51.21.48.61.62,1.07a4.26,4.26,0,0,0-1.39-.18S282.6,269.35,283,269.61Z" style="fill:#fff"></path></g><path d="M276.13,279.44l-.17-.28-1.36-2.25c-2.17-3.56-4.4-7.19-7.68-10a21.54,21.54,0,0,0-12.24-5,10.23,10.23,0,0,1,5.78-3.94,16.2,16.2,0,0,1,12.43,2.14,25.78,25.78,0,0,1,6.38,5.5,9.45,9.45,0,0,1,1.3,2.12,7.77,7.77,0,0,1,.46,2.09C281.62,276,278.37,277.85,276.13,279.44Z" style="fill:#00D9BE"></path><path d="M217.13,361.1c-15.47,2-8.62-10.51-9.52-10.05,9.23-8.32,21-17.22,32-22.9,6.12-3.15,12.53-11.54,18-15.74a26.6,26.6,0,0,1,8-4.66,10.77,10.77,0,0,1,9,.78c2.62,1.68,4.11,5.23,2.87,8.08-1.56,3.6-4.9,6.57-7.95,9-11.22,9.05-47.82,32.22-50.65,34.35A8,8,0,0,1,217.13,361.1Z" style="fill:#00D9BE"></path><path d="M213.79,349.93a6.5,6.5,0,0,1,4.3,4.22,11,11,0,0,1,.07,6.19.9.9,0,0,1-.16.39,1,1,0,0,1-.42.23s-5.59,1.3-8.23-.57a6.49,6.49,0,0,1-2.15-2.92c-.86-1.76.41-6.42.41-6.42C208.68,349.41,212,349.48,213.79,349.93Z" style="fill:#fff;opacity:0.1"></path><path d="M196.09,349.11a.62.62,0,0,0,.07.84c1,1.25,1.73,3.32,2.69,4.58a1.9,1.9,0,0,0,1.08.86,1.71,1.71,0,0,0,.86-.13,7.49,7.49,0,0,0,4.46-3.48,4.87,4.87,0,0,0-.95-5.26C202.74,344.66,197,347.38,196.09,349.11Z" style="fill:#ffbfb9"></path><path d="M196.34,348.76s-2.85,2.81-2.23,6.06c.47,2.47,3.1,2.71,4.34,2.68a1.65,1.65,0,0,0,1.08-.43l2.66-2.4S200.43,348.25,196.34,348.76Z" style="fill:#ffbfb9"></path><path d="M204.07,357.93a.76.76,0,0,0-.14.43.89.89,0,0,0,.2.4l2.88,3.77a2,2,0,0,0,1.08.86,1.83,1.83,0,0,0,.86-.13,7.49,7.49,0,0,0,4.46-3.48,4.3,4.3,0,0,0-.95-5.26C209.22,352.08,205.69,355,204.07,357.93Z" style="fill:#ffbfb9"></path><path d="M204.39,357.39s-3.2,2.83-2.75,4.11,2.46,4.62,4.34,4.17,4.36-3,4.36-3S209.6,356.33,204.39,357.39Z" style="fill:#ffbfb9"></path></g><g id="freepik--Snow--inject-74"><path d="M385.41,380.93a13.88,13.88,0,0,1,8.66-5.26,5.61,5.61,0,0,1,4.25,1,3,3,0,0,1,.66,4c-.78,1-2.39,1.48-2.32,2.71a67.56,67.56,0,0,1,8,1.52c1.13.28,2.38.71,2.83,1.78.56,1.33-.62,2.88-2,3.26a7.74,7.74,0,0,1-4.26-.46,42.72,42.72,0,0,1,8.54,2.21,4.2,4.2,0,0,1,2.56,1.87c.8,1.77-1.17,3.75-3.11,3.84s-3.72-1-5.5-1.76a21.61,21.61,0,0,0-16.36-.43c-.46.18-1.17.24-1.26-.24,0-.27.16-.51.35-.7l3.8-3.69c-3-1.12-6.85,4.35-9.05.65C379.53,388.38,383.83,382.86,385.41,380.93Z" style="fill:#00D9BE"></path><path d="M385.41,380.93a13.88,13.88,0,0,1,8.66-5.26,5.61,5.61,0,0,1,4.25,1,3,3,0,0,1,.66,4c-.78,1-2.39,1.48-2.32,2.71a67.56,67.56,0,0,1,8,1.52c1.13.28,2.38.71,2.83,1.78.56,1.33-.62,2.88-2,3.26a7.74,7.74,0,0,1-4.26-.46,42.72,42.72,0,0,1,8.54,2.21,4.2,4.2,0,0,1,2.56,1.87c.8,1.77-1.17,3.75-3.11,3.84s-3.72-1-5.5-1.76a21.61,21.61,0,0,0-16.36-.43c-.46.18-1.17.24-1.26-.24,0-.27.16-.51.35-.7l3.8-3.69c-3-1.12-6.85,4.35-9.05.65C379.53,388.38,383.83,382.86,385.41,380.93Z" style="fill:#fff;opacity:0.7000000000000001"></path><path d="M373.9,368.27a3.41,3.41,0,0,1,5.52-3.73,5.12,5.12,0,0,1,1,1.24,2.74,2.74,0,0,1-1.89,3.76c-.84.1-1.68-.26-2.52-.23s-1.8.83-1.45,1.6a1.53,1.53,0,0,1-.41-1.9,4.47,4.47,0,0,1,1.43-1.54,1.63,1.63,0,0,0-1.71.8Z" style="fill:#00D9BE"></path><g style="opacity:0.7000000000000001"><path d="M373.9,368.27a3.41,3.41,0,0,1,5.52-3.73,5.12,5.12,0,0,1,1,1.24,2.74,2.74,0,0,1-1.89,3.76c-.84.1-1.68-.26-2.52-.23s-1.8.83-1.45,1.6a1.53,1.53,0,0,1-.41-1.9,4.47,4.47,0,0,1,1.43-1.54,1.63,1.63,0,0,0-1.71.8Z" style="fill:#fff"></path></g><path d="M382.76,407.83c1.2-.45,1.63,1.58,3.63,1.71a.44.44,0,0,1,.4.56h0a1,1,0,0,0,.25.87,1.15,1.15,0,0,1,.21.56,1.87,1.87,0,0,1-.88,1.8,4.32,4.32,0,0,1-1.85.34,5.74,5.74,0,0,1-2.47-.32,2.12,2.12,0,0,1-1.38-1.91,1.33,1.33,0,0,1,1.74-1.2l-.6-.8a.58.58,0,0,1,0-.76,1.07,1.07,0,0,1,1-.44Z" style="fill:#00D9BE"></path><g style="opacity:0.7000000000000001"><path d="M382.76,407.83c1.2-.45,1.63,1.58,3.63,1.71a.44.44,0,0,1,.4.56h0a1,1,0,0,0,.25.87,1.15,1.15,0,0,1,.21.56,1.87,1.87,0,0,1-.88,1.8,4.32,4.32,0,0,1-1.85.34,5.74,5.74,0,0,1-2.47-.32,2.12,2.12,0,0,1-1.38-1.91,1.33,1.33,0,0,1,1.74-1.2l-.6-.8a.58.58,0,0,1,0-.76,1.07,1.07,0,0,1,1-.44Z" style="fill:#fff"></path></g><path d="M367.08,388.48c.21-.37.5-.8.92-.76a.76.76,0,0,1,.62.67,2.13,2.13,0,0,1-.15,1l-1.47,4.8a8.63,8.63,0,0,1,3.54-1.67c.53-.11,1.24-.08,1.41.44s-.21.83-.53,1.14l-5.24,5c-.4.38-1.1.73-1.4.27a.94.94,0,0,1,0-.77,11.87,11.87,0,0,1,1.39-2.81c-1.34,1.13-3.09,1.57-2.58-.82C364,392.84,366.06,390.36,367.08,388.48Z" style="fill:#00D9BE"></path><path d="M367.08,388.48c.21-.37.5-.8.92-.76a.76.76,0,0,1,.62.67,2.13,2.13,0,0,1-.15,1l-1.47,4.8a8.63,8.63,0,0,1,3.54-1.67c.53-.11,1.24-.08,1.41.44s-.21.83-.53,1.14l-5.24,5c-.4.38-1.1.73-1.4.27a.94.94,0,0,1,0-.77,11.87,11.87,0,0,1,1.39-2.81c-1.34,1.13-3.09,1.57-2.58-.82C364,392.84,366.06,390.36,367.08,388.48Z" style="fill:#fff;opacity:0.7000000000000001"></path><path d="M229.87,105.81A5.89,5.89,0,1,1,224,99.92,5.89,5.89,0,0,1,229.87,105.81Z" style="fill:#00D9BE;opacity:0.9"></path><circle cx="71.79" cy="140.89" r="5.89" style="fill:#00D9BE;opacity:0.9"></circle><path d="M121.14,206.57a5.9,5.9,0,1,1-5.9-5.89A5.9,5.9,0,0,1,121.14,206.57Z" style="fill:#00D9BE;opacity:0.9"></path><circle cx="293.07" cy="75.29" r="4.44" style="fill:#00D9BE;opacity:0.9"></circle><path d="M438.78,183.55a4.44,4.44,0,1,1-4.44-4.44A4.44,4.44,0,0,1,438.78,183.55Z" style="fill:#00D9BE;opacity:0.9"></path><path d="M209.82,160.32a5.89,5.89,0,1,1-5.89-5.89A5.9,5.9,0,0,1,209.82,160.32Z" style="fill:#00D9BE;opacity:0.9"></path><g style="opacity:0.9"><path d="M209.82,160.32a5.89,5.89,0,1,1-5.89-5.89A5.9,5.9,0,0,1,209.82,160.32Z" style="fill:#fff;opacity:0.9"></path></g><path d="M360,128a5.9,5.9,0,1,1-5.9-5.9A5.9,5.9,0,0,1,360,128Z" style="fill:#00D9BE;opacity:0.9"></path><g style="opacity:0.9"><path d="M360,128a5.9,5.9,0,1,1-5.9-5.9A5.9,5.9,0,0,1,360,128Z" style="fill:#fff;opacity:0.9"></path></g><path d="M378.73,81.2a5.9,5.9,0,1,1-5.9-5.89A5.9,5.9,0,0,1,378.73,81.2Z" style="fill:#00D9BE;opacity:0.9"></path><circle cx="61.53" cy="257.75" r="4.42" style="fill:#00D9BE;opacity:0.9"></circle><path d="M173.76,125.59a2.45,2.45,0,1,1-2.45-2.45A2.45,2.45,0,0,1,173.76,125.59Z" style="fill:#00D9BE;opacity:0.9"></path><path d="M317.09,99.92a2.45,2.45,0,1,1-2.44-2.45A2.44,2.44,0,0,1,317.09,99.92Z" style="fill:#00D9BE;opacity:0.9"></path><path d="M409,111.87a2.45,2.45,0,1,1-2.45-2.45A2.45,2.45,0,0,1,409,111.87Z" style="fill:#00D9BE;opacity:0.9"></path><path d="M140.59,109.1a2.45,2.45,0,1,1-2.45-2.45A2.45,2.45,0,0,1,140.59,109.1Z" style="fill:#00D9BE;opacity:0.9"></path><g style="opacity:0.9"><path d="M229.87,105.81A5.89,5.89,0,1,1,224,99.92,5.89,5.89,0,0,1,229.87,105.81Z" style="fill:#fff;opacity:0.9"></path><circle cx="71.79" cy="140.89" r="5.89" style="fill:#fff;opacity:0.9"></circle><path d="M121.14,206.57a5.9,5.9,0,1,1-5.9-5.89A5.9,5.9,0,0,1,121.14,206.57Z" style="fill:#fff;opacity:0.9"></path><circle cx="293.07" cy="75.29" r="4.44" style="fill:#fff;opacity:0.9"></circle><path d="M438.78,183.55a4.44,4.44,0,1,1-4.44-4.44A4.44,4.44,0,0,1,438.78,183.55Z" style="fill:#fff;opacity:0.9"></path><path d="M378.73,81.2a5.9,5.9,0,1,1-5.9-5.89A5.9,5.9,0,0,1,378.73,81.2Z" style="fill:#fff;opacity:0.9"></path><circle cx="61.53" cy="257.75" r="4.42" style="fill:#fff;opacity:0.9"></circle><path d="M173.76,125.59a2.45,2.45,0,1,1-2.45-2.45A2.45,2.45,0,0,1,173.76,125.59Z" style="fill:#fff;opacity:0.9"></path><path d="M317.09,99.92a2.45,2.45,0,1,1-2.44-2.45A2.44,2.44,0,0,1,317.09,99.92Z" style="fill:#fff;opacity:0.9"></path><path d="M409,111.87a2.45,2.45,0,1,1-2.45-2.45A2.45,2.45,0,0,1,409,111.87Z" style="fill:#fff;opacity:0.9"></path><path d="M140.59,109.1a2.45,2.45,0,1,1-2.45-2.45A2.45,2.45,0,0,1,140.59,109.1Z" style="fill:#fff;opacity:0.9"></path></g></g></svg>