<svg xmlns="http://www.w3.org/2000/svg" viewBox="0 0 750 500"><g id="freepik--background-simple--inject-36"><path d="M19.48,287.82c-30.25-118.29,44.74-238.69,165-259.76,1.25-.22,2.5-.43,3.77-.63,101.11-15.88,195.54,19.22,254,74.37S566.81,103.48,680.46,182s55.16,300-110.3,298.33-114.49-68.53-193.88-71.87S271.07,470.52,164,436.9C77.77,409.82,35.35,349.9,19.48,287.82Z" style="fill:#00D9BE"></path><path d="M19.48,287.82c-30.25-118.29,44.74-238.69,165-259.76,1.25-.22,2.5-.43,3.77-.63,101.11-15.88,195.54,19.22,254,74.37S566.81,103.48,680.46,182s55.16,300-110.3,298.33-114.49-68.53-193.88-71.87S271.07,470.52,164,436.9C77.77,409.82,35.35,349.9,19.48,287.82Z" style="fill:#fff;opacity:0.7000000000000001"></path></g><g id="freepik--Moon--inject-36"><circle cx="117.63" cy="107.87" r="71.25" transform="translate(-41.82 114.77) rotate(-45)" style="fill:none;stroke:#263238;stroke-linecap:round;stroke-linejoin:round"></circle><circle cx="91.4" cy="84.15" r="14.3" transform="translate(-6.31 160.89) rotate(-80.78)" style="fill:none;stroke:#263238;stroke-linecap:round;stroke-linejoin:round"></circle><path d="M83,128.68a4.32,4.32,0,1,1-4.32-4.32A4.32,4.32,0,0,1,83,128.68Z" style="fill:none;stroke:#263238;stroke-linecap:round;stroke-linejoin:round"></path><circle cx="124.86" cy="125.71" r="8.37" style="fill:none;stroke:#263238;stroke-linecap:round;stroke-linejoin:round"></circle><circle cx="145.64" cy="61.75" r="5.4" style="fill:none;stroke:#263238;stroke-linecap:round;stroke-linejoin:round"></circle><circle cx="164.26" cy="104.12" r="4.05" style="fill:none;stroke:#263238;stroke-linecap:round;stroke-linejoin:round"></circle><circle cx="142.67" cy="85.23" r="6.75" style="fill:none;stroke:#263238;stroke-linecap:round;stroke-linejoin:round"></circle><circle cx="107.32" cy="156.75" r="8.1" style="fill:none;stroke:#263238;stroke-linecap:round;stroke-linejoin:round"></circle><circle cx="152.93" cy="145.14" r="4.05" style="fill:none;stroke:#263238;stroke-linecap:round;stroke-linejoin:round"></circle><path d="M114.88,51.5a4.32,4.32,0,1,1-4.32-4.32A4.33,4.33,0,0,1,114.88,51.5Z" style="fill:none;stroke:#263238;stroke-linecap:round;stroke-linejoin:round"></path><circle cx="59.82" cy="91.98" r="3.24" style="fill:none;stroke:#263238;stroke-linecap:round;stroke-linejoin:round"></circle></g><g id="freepik--Stars--inject-36"><circle cx="251.36" cy="61.01" r="24.22" style="fill:none;stroke:#263238;stroke-linecap:round;stroke-linejoin:round"></circle><circle cx="577.08" cy="425.94" r="24.22" style="fill:none;stroke:#263238;stroke-linecap:round;stroke-linejoin:round"></circle><circle cx="316.28" cy="135.43" r="11.07" style="fill:none;stroke:#263238;stroke-linecap:round;stroke-linejoin:round"></circle><circle cx="42.04" cy="211.89" r="11.07" transform="translate(-137.51 91.79) rotate(-45)" style="fill:none;stroke:#263238;stroke-linecap:round;stroke-linejoin:round"></circle><circle cx="400.05" cy="72.56" r="11.07" transform="translate(73.09 314.22) rotate(-46.75)" style="fill:none;stroke:#263238;stroke-linecap:round;stroke-linejoin:round"></circle><circle cx="598.94" cy="363.37" r="11.07" transform="translate(-81.51 529.94) rotate(-45)" style="fill:none;stroke:#263238;stroke-linecap:round;stroke-linejoin:round"></circle><circle cx="449.36" cy="409.33" r="11.07" style="fill:none;stroke:#263238;stroke-linecap:round;stroke-linejoin:round"></circle><circle cx="534.25" cy="106.83" r="6.79" style="fill:none;stroke:#263238;stroke-linecap:round;stroke-linejoin:round"></circle><circle cx="694.21" cy="317.41" r="6.79" style="fill:none;stroke:#263238;stroke-linecap:round;stroke-linejoin:round"></circle><circle cx="309.19" cy="234.82" r="6.79" transform="matrix(0.99, -0.16, 0.16, 0.99, -33.56, 52.44)" style="fill:none;stroke:#263238;stroke-linecap:round;stroke-linejoin:round"></circle><circle cx="242.95" cy="429.38" r="6.79" style="fill:none;stroke:#263238;stroke-linecap:round;stroke-linejoin:round"></circle></g><g id="freepik--raindeer-2--inject-36"><path d="M640.38,122.87s-6.54-5.19-9.34-12a82.19,82.19,0,0,0-3.33-7.62s4.24-6.73,3.54-9.42-2.13-1.3-2.94.51-3,6.85-3,6.85a61.2,61.2,0,0,1-3.71-8.55c-.89-3.15.39-13.9,2.62-19.78s5-8.14,5-11.52-4.15-2.43-6.72,2.39-5.15,15.72-5.39,20.9-.28,6-.28,6A33.44,33.44,0,0,1,610,84.55c-3.16-3.77-5.88-4.91-6.88-2.86s8.14,11.6,12,14.54a40.15,40.15,0,0,0,4.55,3.22l5,7.83s-2.26.66-5.61-2.87-6.87-4.28-7.21-2.65,6.62,6.76,10.4,9a45.72,45.72,0,0,1,7.18,4.76c2.66,2.12,6.82,8.5,6.82,8.5" style="fill:#263238;stroke:#263238;stroke-linecap:round;stroke-linejoin:round"></path><path d="M639.57,122.24s-8.29-1-14.26-5.27-6.85-4.72-6.85-4.72,0-8-2-9.87-2.49,0-2.22,2,1.06,7.41,1.06,7.41a61.14,61.14,0,0,1-7.65-5.31c-2.42-2.21-7-12-8.21-18.19s-.08-9.53-1.86-12.41-4.8.12-4.44,5.58,3.91,16.07,6.44,20.6l2.93,5.25a33.52,33.52,0,0,1-9-1.6c-4.67-1.54-7.59-1.07-7.36,1.2s13,5.56,17.91,6a41.33,41.33,0,0,0,5.56.34l8.37,4s-1.58,1.74-6.29.51-8.08,0-7.52,1.55,9.2,2.25,13.56,2.14a45.68,45.68,0,0,1,8.62.26c3.38.39,10.28,3.62,10.28,3.62" style="fill:#263238;stroke:#263238;stroke-linecap:round;stroke-linejoin:round"></path><path d="M596,204.61a22.2,22.2,0,0,1-14.15-1.45c-6.91-3.4-6.45-9-6.72-11.64s-2.53-1.36-4.29,3.82-.34,10.34,2.43,13,9.36,1.38,9.36,1.38-6.26,3.4-3.66,4.95,7.7-.06,13.28-3.45S596,204.61,596,204.61Z" style="fill:#d9d9d9;stroke:#263238;stroke-linecap:round;stroke-linejoin:round"></path><path d="M592.86,240.6s-.91,7-6.78,5.88c-3.4-.62-14-9.08-17.23-4.71s.81,28.7.35,36.86-8.44,4.43-10.5,3.8-5.84,2-5.41,5.77.36,8.62,6.83,7,13.1-5.43,14.54-17.83-1.08-20.61,1.14-21.42,9.75,9.26,19.51,6,8.22-18.28,4.21-26.19S592.86,240.6,592.86,240.6Z" style="fill:#263238;stroke:#263238;stroke-linecap:round;stroke-linejoin:round"></path><path d="M693.92,211.12a34.91,34.91,0,0,0,10.49-8.38c4.13-5.24,8.38-7,11.83-1.09s4.5,39.27,4,44.85-4,7.9-9.82,7.93-7.5-2.9-6.72-6.51,2.6-2,6.5-2.15,5.16-1.24,5.07-7.24-3.57-22.07-4.53-23.77-6.71,12.86-13.95,19.86-17.64-.47-17.64-.47" style="fill:#263238;stroke:#263238;stroke-linecap:round;stroke-linejoin:round"></path><path d="M679,126.69s-9.1,1.54-11.17.09-6.8-5.44-13-6.91-14.27-1.19-20,5.95-5.48,15.16-3.15,27.05,15.83,28.52,18.3,32.9,3.89,8.91.34,13-4.37,5.53-16.18,5.65-20.48-3.78-29.54-3.35-17.17,7.76-16.48,19.37,6,25,2,28.49-10.53-.58-14.32-3.16-5.75-.11-5,6.21.78,22.12,0,27.88-6.34,7.35-8.24,6.94-8.59-3.69-9.18,1.35-.84,10.41,3.54,10.36,15.92-8.19,18.73-13.16.81-19,1.33-24.2,4.78-1.95,7.39.4,9.37,13.73,28.81,5.59,19.78-20.57,19.78-20.57,24,6.89,41.86-2.66,24.8-25.46,23.11-40.44-10.75-24.21-18.53-29.29-17.65-8.1-22.72-14.83-4.49-9.35-4.49-9.35,4.16-.29,8.48-6.25c0,0,7.37-2.13,10.17-2.27s4.78.47,6.39-.56a26.74,26.74,0,0,0,4.08-3.89s2.79-3.21,2.44-6.59S679,126.69,679,126.69Z" style="fill:#d9d9d9;stroke:#263238;stroke-linecap:round;stroke-linejoin:round"></path><path d="M683.78,126.2c.57,1.58-.59,3.45-2.6,4.18s-4.1,0-4.67-1.54.59-3.45,2.6-4.18S683.21,124.63,683.78,126.2Z" style="fill:#00D9BE;stroke:#263238;stroke-linecap:round;stroke-linejoin:round"></path><ellipse cx="656.14" cy="128.21" rx="5.94" ry="7.53" transform="translate(169.7 586.83) rotate(-54.37)" style="fill:#fff;stroke:#263238;stroke-linecap:round;stroke-linejoin:round"></ellipse><path d="M658.35,125.1c1,.74,1.51,1.83,1.07,2.44s-1.62.5-2.65-.24-1.51-1.83-1.08-2.44S657.32,124.36,658.35,125.1Z" style="fill:#263238;stroke:#263238;stroke-linecap:round;stroke-linejoin:round"></path><path d="M680.12,138.41s-8.31,1.39-11.38-.58" style="fill:none;stroke:#263238;stroke-linecap:round;stroke-linejoin:round"></path><path d="M638.63,129.78s-5.9-4.91-11.68-7.08-20.85,1.68-20.82,3S616.94,136,622.5,136.37s14.24-3.7,14.76-3.88" style="fill:#d9d9d9;stroke:#263238;stroke-linecap:round;stroke-linejoin:round"></path><path d="M636.87,131s-7.34-4.84-11.13-6-15.37.57-16.85,1,8.67,8.91,15.79,8.68A25.06,25.06,0,0,0,636.87,131Z" style="fill:#d9d9d9;stroke:#263238;stroke-linecap:round;stroke-linejoin:round"></path><path d="M656.59,159.4c-5.07-6.72-4.49-9.35-4.49-9.35s-4.3,1.85-8-.57c-1.51-1-1.64-.77-1.64-.77s4.87,15.94,14.11,25.76,20.3,9.67,29.73,26.91c4.1,7.5,8.3,10.66,11.55,10.22a39,39,0,0,0-.06-8.08c-1.7-15-10.75-24.21-18.53-29.29S661.66,166.13,656.59,159.4Z" style="fill:#fff;stroke:#263238;stroke-linecap:round;stroke-linejoin:round"></path><path d="M633.66,244.55s2.16-5.32,0-16.34" style="fill:#fff;stroke:#263238;stroke-linecap:round;stroke-linejoin:round"></path><path d="M674.73,244a50.38,50.38,0,0,0,9.86-6.83c-3.18-1.07-8.81-3.73-10.72-9.43,0,0,1,2.61-13.23,5.48a88,88,0,0,1-26.09,1.28s-.42,7.55-1.17,12.3C636.92,247.68,658.4,252.69,674.73,244Z" style="fill:#fff;stroke:#263238;stroke-linecap:round;stroke-linejoin:round"></path><path d="M681.63,214.67a29.49,29.49,0,0,0,17-7.53C706.5,200,712.49,194,717,196.4s4.19,4.85,6.22,18.4c3.35,22.4-.23,30.06-1.8,34.49s-7.45,9.51-10.53,7.9-5.34-7.83-2.55-9.52,8.44,2.61,8.51-7.85-1.68-20.28-3.21-24.5l-2.1-5.82s-5.35,17.83-19.22,27.17-21.24-4.1-21.24-4.1a16.72,16.72,0,0,1-3.16-7.48" style="fill:#d9d9d9;stroke:#263238;stroke-linecap:round;stroke-linejoin:round"></path><path d="M640.94,202.69c-.32.9,13,22.31,10.5,46.07,0,0,1.31,2.25,7.93,1.34s7.74-3.3,6.87-11.17-5.34-20.9-8.72-28.85-6.27-13.86-7.66-13.6S642.66,197.84,640.94,202.69Z" style="fill:#00D9BE;stroke:#263238;stroke-linecap:round;stroke-linejoin:round"></path><path d="M651.75,192.81a169.08,169.08,0,0,1,28.43.37c13.47,1.57,16.12,4.08,16.6,2.66s-1.11-5.8-3-9.07-15.16-6.91-27.18-6.52-20.26,1.63-20.42,3.92S649.08,192.29,651.75,192.81Z" style="fill:#00D9BE;stroke:#263238;stroke-linecap:round;stroke-linejoin:round"></path></g><g id="freepik--raindeer-1--inject-36"><path d="M443.22,173s-6.71-5-9.74-11.66a81.44,81.44,0,0,0-3.6-7.51s4-6.87,3.21-9.54-2.17-1.22-2.91.62-2.76,7-2.76,7a62.06,62.06,0,0,1-4-8.42c-1-3.12-.09-13.9,1.94-19.86s4.68-8.3,4.57-11.69-4.23-2.28-6.63,2.63-4.61,15.89-4.68,21.07-.07,6-.07,6a33.81,33.81,0,0,1-7-5.85c-3.29-3.67-6.05-4.71-7-2.63s8.54,11.32,12.54,14.12a38.45,38.45,0,0,0,4.66,3.06l5.25,7.66s-2.23.73-5.7-2.69-7-4-7.3-2.4,6.86,6.54,10.7,8.61A45.83,45.83,0,0,1,432.1,166c2.73,2,7.11,8.26,7.11,8.26" style="fill:#263238;stroke:#263238;stroke-linecap:round;stroke-linejoin:round"></path><path d="M442.39,172.4s-8.31-.67-14.43-4.77a78.66,78.66,0,0,0-7-4.48s-.22-8-2.3-9.8-2.49.11-2.15,2.06,1.32,7.36,1.32,7.36a61.41,61.41,0,0,1-7.84-5c-2.49-2.13-7.41-11.77-8.83-17.9s-.4-9.52-2.28-12.33-4.8.29-4.25,5.72,4.47,15.93,7.14,20.37l3.12,5.15a33.9,33.9,0,0,1-9-1.29c-4.73-1.38-7.62-.81-7.31,1.45s13.22,5.11,18.1,5.38a40,40,0,0,0,5.57.14l8.5,3.74s-1.51,1.79-6.26.73-8.09.27-7.47,1.8,9.27,1.94,13.63,1.67a46.89,46.89,0,0,1,8.62,0c3.39.28,10.4,3.27,10.4,3.27" style="fill:#263238;stroke:#263238;stroke-linecap:round;stroke-linejoin:round"></path><path d="M401.71,256.23a22.23,22.23,0,0,1-14.19-1c-7-3.16-6.75-8.79-7.11-11.4s-2.58-1.27-4.16,4,0,10.34,2.88,12.87,9.4,1.06,9.4,1.06-6.14,3.62-3.48,5.08,7.68-.33,13.15-3.91S401.71,256.23,401.71,256.23Z" style="fill:#d9d9d9;stroke:#263238;stroke-linecap:round;stroke-linejoin:round"></path><path d="M399.78,292.3s-.66,7-6.56,6.11c-3.43-.5-14.33-8.59-17.39-4.12s1.8,28.66,1.62,36.83-8.28,4.72-10.36,4.17-5.76,2.17-5.2,5.95.64,8.61,7.06,6.72,12.9-5.88,13.92-18.32-1.79-20.57.4-21.45,10.06,8.92,19.7,5.27,7.58-18.55,3.3-26.31S399.78,292.3,399.78,292.3Z" style="fill:#263238;stroke:#263238;stroke-linecap:round;stroke-linejoin:round"></path><path d="M499.77,259.36A34.68,34.68,0,0,0,510,250.62c3.95-5.38,8.13-7.32,11.79-1.49s5.85,39.09,5.57,44.68-3.72,8-9.53,8.26-7.6-2.64-6.95-6.27,2.54-2.07,6.42-2.37,5.12-1.43,4.82-7.42-4.32-21.93-5.34-23.6-6.26,13.09-13.26,20.33-17.65.14-17.65.14" style="fill:#263238;stroke:#263238;stroke-linecap:round;stroke-linejoin:round"></path><path d="M481.94,175.49s-9,1.86-11.16.48-7-5.2-13.27-6.45-14.3-.71-19.81,6.62-5,15.35-2.22,27.15,16.81,28,19.42,32.25,4.19,8.77.79,13-4.17,5.68-16,6.2-20.59-3.07-29.63-2.33-16.9,8.35-15.8,19.93,6.86,24.83,3,28.4-10.54-.21-14.42-2.66-5.75.09-4.78,6.38,1.53,22.08,1,27.87-6.09,7.56-8,7.22-8.71-3.4-9.12,1.66-.48,10.43,3.89,10.23,15.62-8.73,18.26-13.79.16-19,.49-24.23,4.72-2.12,7.4.14,9.84,13.4,29,4.58S440,296.94,440,296.94s24.24,6.05,41.74-4.1,23.92-26.3,21.71-41.21S491.84,227.81,483.9,223s-17.92-7.48-23.22-14-4.81-9.19-4.81-9.19,4.15-.44,8.26-6.54c0,0,7.29-2.38,10.09-2.62s4.79.3,6.36-.78a26.84,26.84,0,0,0,3.95-4s2.67-3.3,2.21-6.67S481.94,175.49,481.94,175.49Z" style="fill:#d9d9d9;stroke:#263238;stroke-linecap:round;stroke-linejoin:round"></path><path d="M486.71,174.84c.63,1.56-.47,3.47-2.45,4.27s-4.1.18-4.73-1.38.48-3.47,2.46-4.27S486.09,173.28,486.71,174.84Z" style="fill:#00D9BE;stroke:#263238;stroke-linecap:round;stroke-linejoin:round"></path><path d="M462.45,172.86c3.46,2.3,4.8,6.38,3,9.12s-6.1,3.07-9.56.77-4.8-6.39-3-9.12S459,170.55,462.45,172.86Z" style="fill:#fff;stroke:#263238;stroke-linecap:round;stroke-linejoin:round"></path><path d="M461.26,174.62c1.05.7,1.57,1.77,1.16,2.39s-1.61.56-2.66-.14-1.58-1.78-1.16-2.4S460.2,173.91,461.26,174.62Z" style="fill:#263238;stroke:#263238;stroke-linecap:round;stroke-linejoin:round"></path><path d="M483.48,187.16s-8.26,1.69-11.4-.18" style="fill:none;stroke:#263238;stroke-linecap:round;stroke-linejoin:round"></path><path d="M441.71,180s-6.06-4.71-11.92-6.67-20.78,2.39-20.7,3.7,11.16,10,16.73,10.11,14.1-4.18,14.61-4.39" style="fill:#d9d9d9;stroke:#263238;stroke-linecap:round;stroke-linejoin:round"></path><path d="M440,181.26s-7.51-4.58-11.33-5.57-15.34,1.1-16.81,1.54,9,8.61,16.08,8.13A25,25,0,0,0,440,181.26Z" style="fill:#d9d9d9;stroke:#263238;stroke-linecap:round;stroke-linejoin:round"></path><path d="M460.68,209c-5.3-6.55-4.81-9.19-4.81-9.19s-4.23,2-8-.3c-1.54-.95-1.67-.71-1.67-.71s5.42,15.76,15,25.26,20.63,9,30.64,25.87c4.36,7.35,8.67,10.36,11.9,9.81a39.59,39.59,0,0,0-.34-8.07c-2.22-14.91-11.59-23.82-19.53-28.64S466,215.51,460.68,209Z" style="fill:#fff;stroke:#263238;stroke-linecap:round;stroke-linejoin:round"></path><path d="M440.7,294.84s2-5.39-.58-16.33" style="fill:#fff;stroke:#263238;stroke-linecap:round;stroke-linejoin:round"></path><path d="M481.72,292.84a50.26,50.26,0,0,0,9.62-7.16c-3.21-1-8.93-3.43-11-9.06,0,0,1,2.58-13,5.93a88,88,0,0,1-26,2.18s-.15,7.56-.74,12.33C444.06,297.86,465.71,302.13,481.72,292.84Z" style="fill:#fff;stroke:#263238;stroke-linecap:round;stroke-linejoin:round"></path><path d="M487.62,263.33a29.51,29.51,0,0,0,16.75-8.11c7.59-7.43,13.37-13.66,18-11.37s4.36,4.71,6.85,18.18c4.12,22.27.81,30-.61,34.52s-7.12,9.77-10.26,8.26-5.6-7.64-2.87-9.42,8.53,2.32,8.23-8.14-2.37-20.21-4-24.37-2.31-5.74-2.31-5.74-4.72,18-18.26,27.81-21.37-3.37-21.37-3.37a16.63,16.63,0,0,1-3.42-7.37" style="fill:#d9d9d9;stroke:#263238;stroke-linecap:round;stroke-linejoin:round"></path><path d="M446.53,252.75c-.29.92,13.82,21.86,12.08,45.69,0,0,1.39,2.21,8,1.07s7.61-3.57,6.47-11.41-6.05-20.69-9.71-28.53-6.73-13.63-8.12-13.33S448.08,247.86,446.53,252.75Z" style="fill:#00D9BE;stroke:#263238;stroke-linecap:round;stroke-linejoin:round"></path><path d="M457,242.51a169.57,169.57,0,0,1,28.42-.61c13.52,1.1,16.25,3.52,16.68,2.09s-1.31-5.76-3.35-9-15.39-6.38-27.39-5.58-20.18,2.33-20.27,4.62S454.31,242.08,457,242.51Z" style="fill:#00D9BE;stroke:#263238;stroke-linecap:round;stroke-linejoin:round"></path></g><g id="freepik--Character--inject-36"><path d="M177.09,241.62s8.7-2.1,13.14-7.48,4-10.14,4-10.14l23.75.79s.08,19-3.93,29.75-18.66,14.94-18.66,14.94.17-4.92-6.73-9.61-13.31-5-14.35-9.57S174.56,243.75,177.09,241.62Z" style="fill:#00D9BE;stroke:#263238;stroke-linecap:round;stroke-linejoin:round"></path><path d="M239.16,314.48l0,16.48s6.38-5.37,9.13-4.79,2.6,3.58,1.06,6.21a25.24,25.24,0,0,1-14.5,10.45,94.78,94.78,0,0,1-10.07,1.89s1.4.38.54,1.34-2.94,2.25-6.26.89-2.61-9.32-2.61-9.32l-9.88-18,32.13-8.2Z" style="fill:#263238;stroke:#263238;stroke-linecap:round;stroke-linejoin:round"></path><path d="M225.65,289.66s8.32,2.09,10.77,7.2S237.81,310,237.81,310s.1,1.08-12.7,3.87-19.36,2.46-19.36,2.46-7.87-24.27-6.05-27S225.65,289.66,225.65,289.66Z" style="fill:#00D9BE;stroke:#263238;stroke-linecap:round;stroke-linejoin:round"></path><path d="M203.26,311.07a102.8,102.8,0,0,0,23.57-3.38c13-3.39,12.67-3.3,13.3-.87s2.1,5.93-1,7.66a71.93,71.93,0,0,1-21.06,6.61c-8.25,1-12.17,1-13.5-2S202.15,313.21,203.26,311.07Z" style="fill:#fff;stroke:#263238;stroke-linecap:round;stroke-linejoin:round"></path><path d="M212.93,325.56l6.89,15s3.57-7.54,6.31-8.16,3.67,1.6,3.39,4.08c-.49,4.35-3.43,12.61-8.68,16.67a93.71,93.71,0,0,1-8.37,5.9s1.42-.24,1,1-1.73,3.26-5.31,3.41-6.26-7.39-6.26-7.39L185.47,343.8,211.28,323Z" style="fill:#263238;stroke:#263238;stroke-linecap:round;stroke-linejoin:round"></path><path d="M190.31,308.61s8.44-1.57,12.79,2.06,6.74,11.39,6.74,11.39.55.94-9.94,8.8-16.58,10.3-16.58,10.3-17.25-18.79-16.71-22S190.31,308.61,190.31,308.61Z" style="fill:#00D9BE;stroke:#263238;stroke-linecap:round;stroke-linejoin:round"></path><path d="M178.86,337.39a103.18,103.18,0,0,0,20-12.88c10.42-8.49,10.14-8.27,11.73-6.32s4.38,4.52,2.31,7.37a72.36,72.36,0,0,1-16.41,14.77c-7.07,4.38-10.66,5.93-13.12,3.77S178.74,339.8,178.86,337.39Z" style="fill:#fff;stroke:#263238;stroke-linecap:round;stroke-linejoin:round"></path><path d="M203.57,272.65s-1.79,3-18.56,17.63c-9.85,8.62-29.15,17.38-43.41,23.15-9.31,2.46-21,5.29-28.9,6.22,0,0,4.36,25.83,9.92,28.88,5.28,2.9,45.88-7.73,60.53-17.28,5.76-2.64,12.19-6.59,16.12-12.11,8.46-11.87,3.88-25.4,3.88-25.4s1.68,0,4.89.2,11.84.27,16.47-5.35,2.93-13,2.93-13Z" style="fill:#00D9BE;stroke:#263238;stroke-linecap:round;stroke-linejoin:round"></path><path d="M196.84,266l6.73,6.61s-2.64,6.82-12.49,17-26.25,21.56-33.63,25.21a55.13,55.13,0,0,1-13.25,4.68l-3.89-9.28S171.64,298.58,196.84,266Z" style="fill:#263238;stroke:#263238;stroke-linecap:round;stroke-linejoin:round"></path><polygon points="122.71 278.18 93.65 292.88 79.19 266.72 108.25 252.02 122.71 278.18" style="fill:#fff;stroke:#263238;stroke-linecap:round;stroke-linejoin:round"></polygon><polygon points="110.86 284.17 93.65 292.88 79.19 266.72 96.4 258.02 110.86 284.17" style="fill:#fff;stroke:#263238;stroke-linecap:round;stroke-linejoin:round"></polygon><polygon points="103.81 287.74 100.7 289.31 86.25 263.15 89.35 261.58 103.81 287.74" style="fill:#00D9BE;stroke:#263238;stroke-linecap:round;stroke-linejoin:round"></polygon><path d="M179.15,251.25a16.5,16.5,0,0,1,11.93,2.95c6.19,4.21,5.76,11.84,5.76,11.84s-15.15,21.91-38,35.86-39.71,14.25-47.81,7.38-2.66-31.57,11.47-41.57S158.69,249.07,179.15,251.25Z" style="fill:#00D9BE;stroke:#263238;stroke-linecap:round;stroke-linejoin:round"></path><polygon points="95.41 258.52 66.36 273.22 60.79 262.83 89.85 248.13 95.41 258.52" style="fill:#fff;stroke:#263238;stroke-linecap:round;stroke-linejoin:round"></polygon><polygon points="83.56 264.52 66.36 273.22 60.79 262.83 78 254.12 83.56 264.52" style="fill:#fff;stroke:#263238;stroke-linecap:round;stroke-linejoin:round"></polygon><polygon points="76.51 268.08 73.41 269.65 67.84 259.26 70.95 257.69 76.51 268.08" style="fill:#00D9BE;stroke:#263238;stroke-linecap:round;stroke-linejoin:round"></polygon><rect x="50.18" y="271.62" width="47.14" height="39.43" transform="translate(-144.79 85.05) rotate(-32.45)" style="fill:#fff;stroke:#263238;stroke-linecap:round;stroke-linejoin:round"></rect><rect x="51.68" y="276.77" width="27.92" height="39.43" transform="translate(-148.82 81.5) rotate(-32.45)" style="fill:#fff;stroke:#263238;stroke-linecap:round;stroke-linejoin:round"></rect><rect x="63.12" y="276.77" width="5.04" height="39.43" transform="translate(-148.83 81.5) rotate(-32.45)" style="fill:#00D9BE;stroke:#263238;stroke-linecap:round;stroke-linejoin:round"></rect><path d="M66.84,272.36s-1.23.78-2.7,7.95A30.77,30.77,0,0,1,53.91,297.2c-4.16,3.26-7.17,5.38-7.17,5.38l6.94-8.35L43.5,299.45A34.69,34.69,0,0,0,55.09,287.3C59.55,279.28,63.08,272.89,66.84,272.36Z" style="fill:#00D9BE;stroke:#263238;stroke-linecap:round;stroke-linejoin:round"></path><path d="M50.92,275.84c-5.5.17-7.34,4.46-4.8,6.16s10.84-2.73,20.72-9.64C66.84,272.36,56.42,275.66,50.92,275.84Zm9.14,0c-3.77,2.24-9,5.25-10.27,5.05-1.84-.29-.09-2.44,4.64-3.16a20,20,0,0,0,5.63-1.89c1.63-1,3-1.78,3.64-2.14A27.75,27.75,0,0,1,60.06,275.87Z" style="fill:#00D9BE;stroke:#263238;stroke-linecap:round;stroke-linejoin:round"></path><path d="M56.62,263.9c-4.94-.59-7.44,5-2.71,6.51s12.93,1.95,12.93,1.95-8.89-2.45-10.51-3.7S55.27,266,59,268s7.83,4.37,7.83,4.37C66.41,271.6,61.61,264.5,56.62,263.9Z" style="fill:#00D9BE;stroke:#263238;stroke-linecap:round;stroke-linejoin:round"></path><path d="M113.77,261S94.07,277.57,92.33,297s15.31,27.06,32.89,25.62,27.85-10.42,27.85-10.42l-3.38-18.52s-16.41,4-23-4.66-1.9-13.82-1.9-13.82,4.48-7-1.22-13S113.77,261,113.77,261Z" style="fill:#00D9BE;stroke:#263238;stroke-linecap:round;stroke-linejoin:round"></path><path d="M115.53,240.21s-6.33,16.82-5.24,21.65,7.15,2.75,7.15,2.75-6.15,11.17-.9,18.05,16.61.44,16.61.44,5.73,7.41,16.68,3.24,11-12.27,11-12.27a15.8,15.8,0,0,0,17.37-4.2c8-8.37,1.77-16.62,1.77-16.62s6.31-3.63,2.23-12.29a9.92,9.92,0,0,0-12.37-5.68s1-4.54-5.06-7.42-10.5-2.58-10.5-2.58-2.09-2.05-10.27-3.05S119.79,225.57,115.53,240.21Z" style="fill:#fff;stroke:#263238;stroke-linecap:round;stroke-linejoin:round"></path><path d="M114.23,241.54s3.31,13.32,15.72,16.67,24.07-6.74,26.39-12.65c3.16-8.09-1.21-15.36-4.06-18.07a22.42,22.42,0,0,0-7.36-4.19s-9.19-2.38-17.75,1.5S114.23,241.54,114.23,241.54Z" style="fill:#fff;stroke:#263238;stroke-linecap:round;stroke-linejoin:round"></path><path d="M131.87,242c.21.77-1.27,1.83-3.28,2.35s-3.82.33-4-.45,1.27-1.83,3.29-2.36S131.67,241.23,131.87,242Z" style="fill:#00D9BE"></path><path d="M147.39,229.41c.62.51,0,2.23-1.29,3.83s-2.91,2.49-3.53,2,0-2.22,1.29-3.83S146.77,228.9,147.39,229.41Z" style="fill:#00D9BE"></path><ellipse cx="84.65" cy="231.2" rx="8.3" ry="8.22" transform="translate(-55.62 28.85) rotate(-14.62)" style="fill:#fff;stroke:#263238;stroke-linecap:round;stroke-linejoin:round"></ellipse><path d="M147.86,215.61s-10.16-9.22-20.37-13-14.52,0-16.7,1.72S95.94,229,95.94,229s-11.76-.22-10.86,1.35,8.56,3.71,12,3.13,5.38-4,5.38-4,2.1,12.48,3.67,14.71,10-18.1,19.56-21.76,22.05-.81,22.89-2S147.86,215.61,147.86,215.61Z" style="fill:#00D9BE;stroke:#263238;stroke-linecap:round;stroke-linejoin:round"></path><path d="M102.83,221.51c.13-1,.32-2.08.55-3.2" style="fill:none;stroke:#263238;stroke-linecap:round;stroke-linejoin:round"></path><path d="M102.49,229.43a36.33,36.33,0,0,1,.11-5.89" style="fill:none;stroke:#263238;stroke-linecap:round;stroke-linejoin:round"></path><path d="M107.26,237.91s-4,7.7-3.62,9.28,5.85,8.51,8.38,6.64,4.63-19.34,14.55-25.31,27.26-3,27.68-3.24.55-7.63-.23-9.24-22.7-2.66-32.14,3.31S107.26,237.91,107.26,237.91Z" style="fill:#fff;stroke:#263238;stroke-linecap:round;stroke-linejoin:round"></path><path d="M132.89,235.87c.63.68.78,1.57.33,2s-1.33.21-2-.47-.78-1.56-.33-2S132.26,235.2,132.89,235.87Z" style="fill:#263238"></path><path d="M139.49,232.89c.39.84.25,1.73-.31,2s-1.33-.22-1.72-1.06-.24-1.73.32-2S139.1,232.05,139.49,232.89Z" style="fill:#263238"></path><path d="M127.4,228.89a1.81,1.81,0,0,1,2,2.93,12.76,12.76,0,0,0-2.83,3.51c-.79,2-.81,3.84-2.44,3.28s-1.61-4.62.39-7.36A8.31,8.31,0,0,1,127.4,228.89Z" style="fill:none;stroke:#263238;stroke-linecap:round;stroke-linejoin:round"></path><path d="M134.84,224.69a1.81,1.81,0,0,0,.89,3.47,12.27,12.27,0,0,1,4.51.14c2,.71,3.44,1.88,4.08.27s-2.46-4.23-5.84-4.49A8.45,8.45,0,0,0,134.84,224.69Z" style="fill:#fff;stroke:#263238;stroke-linecap:round;stroke-linejoin:round"></path><path d="M143.56,256.64s6.5,3.42,7.69,2.28-.32-8.16-.32-8.16-4.9-2.35-5.93-1.26S143.56,256.64,143.56,256.64Z" style="fill:#263238;stroke:#263238;stroke-linecap:round;stroke-linejoin:round"></path><path d="M136,244.76a9.26,9.26,0,0,1-5.66,6.75c-4.93,2-6.66-.24-5.52-2.19s2.57-2.81.09-2.82-6.28,6.26-5.19,11.08,9.85,9.31,18,5.7A14.13,14.13,0,0,0,146.3,252s7.08,3.1,12.1-1.67,3.14-10.72.62-14.68-7.2-3.56-7.84-2.24,1.55.25,2.57,1.64-.45,5.23-3,5.41a52.18,52.18,0,0,1-8.1-.69S137.42,238.78,136,244.76Z" style="fill:#fff;stroke:#263238;stroke-linecap:round;stroke-linejoin:round"></path><path d="M145.45,240.48a5.91,5.91,0,1,0-4.22,7.21A5.92,5.92,0,0,0,145.45,240.48Z" style="fill:#00D9BE;stroke:#263238;stroke-linecap:round;stroke-linejoin:round"></path><path d="M157.66,291.51s4.23-6.74,7.51-7.25,9.79.18,9.79.18,1.33-2.74,2.59-1.19a3.49,3.49,0,0,1-.63,4.78,18,18,0,0,1-3.43,1.92s9.18-.18,10.2,1.1-.24,3.65-1,4.18a19.93,19.93,0,0,0-1.67,1.46s1.14,1.75-3,5.56-6.89,5.05-10.22,4.72-6.18-.78-6.18-.78Z" style="fill:#d4d4d4;stroke:#263238;stroke-linecap:round;stroke-linejoin:round"></path><path d="M144.84,292.71S147.07,304,148.6,309s2.91,6.52,5.58,5.58,7.15-2.35,8.09-5.26-3.38-12.95-4-16.41-3.58-4.41-7.5-3.63S145.91,291.22,144.84,292.71Z" style="fill:#fff;stroke:#263238;stroke-linecap:round;stroke-linejoin:round"></path><polygon points="183.05 281.96 191.08 289.64 198.93 280.76 191.69 273.19 183.05 281.96" style="fill:#fff;stroke:#263238;stroke-linecap:round;stroke-linejoin:round"></polygon><path d="M199.7,289.39s10,4.53,20.49-3.67,4.18-11.39,4.18-11.39,2.48-3.38,6.36.23,6.11,12.92-2.9,20.31A18.76,18.76,0,0,1,199.7,289.39Z" style="fill:#fff;stroke:#263238;stroke-linecap:round;stroke-linejoin:round"></path><path d="M199.7,289.39s4.14,8.59-.18,20.23c-2.72,7.31-10.63,12.71-16.82,16.89-12.7,8.57-27.65,12.67-42.48,15.8-12.92,2.72-21.88,1-21.88,1a1.8,1.8,0,0,0-.87,2,40.8,40.8,0,0,0,3.81,7.77c1,1.21,4.79,2.17,17.69.58s29.07-6.77,35.4-9.88a22.17,22.17,0,0,0,2-1.11,85,85,0,0,0,24.8-17.09C216.64,310,205.52,293.13,199.7,289.39Z" style="fill:#fff;stroke:#263238;stroke-linecap:round;stroke-linejoin:round"></path><path d="M195.59,214.23s-4.58-5.13-4.66-9.17-.14-9.86-.2-11.31,4-2,5-.32a13.47,13.47,0,0,1,1.17,2.62s2.51-11.53,5.32-12.59,7.61-.69,11.06,8.8a49.21,49.21,0,0,1,2.42,20.47l-.13,2S199.93,217.16,195.59,214.23Z" style="fill:#d4d4d4;stroke:#263238;stroke-linecap:round;stroke-linejoin:round"></path><path d="M196.85,196.05l.46,4.26a6.92,6.92,0,0,1,3.13,3.89,24.16,24.16,0,0,1,1.3,4.37" style="fill:none;stroke:#263238;stroke-linecap:round;stroke-linejoin:round"></path><path d="M208.2,199.09s-3.49,5.3-2.51,7.8a8.61,8.61,0,0,0,2.2,3.48" style="fill:none;stroke:#263238;stroke-linecap:round;stroke-linejoin:round"></path><path d="M195.23,212.87s-3.12-.16-3.37,1.36a106.39,106.39,0,0,0,0,12.5c.25,1.56,6.7,3.28,15.5,3.42s11.57-1.72,11.86-3.09a65.7,65.7,0,0,0,.19-11.09c-.3-3-2.14-3.83-3.77-3.24S202.19,215.27,195.23,212.87Z" style="fill:#fff;stroke:#263238;stroke-linecap:round;stroke-linejoin:round"></path><path d="M272.67,350.22c-3.4,14.26-22.77,22-22.77,22s-62.18,17.72-95.9,25-44.67.67-52.8-11.16-4.74-27.27-16.6-42a39.21,39.21,0,0,0-19-13,32.89,32.89,0,0,0-9.16-1.64s8-22.87,36.15-21.91,61.67,23.83,85.22,33a84.84,84.84,0,0,0,16,4.52c25.66,4.56,46.13-4.68,52.87-13.59,5.46-7.22,5.31-17.82,4.23-25.46a63.26,63.26,0,0,0-2.08-9.54s-3.82,1.29-5.57.26a5.72,5.72,0,0,1-.66-9.32,7.93,7.93,0,0,1,5.6-2.11c4.57,0,10.33,3.15,15.12,10.95C272.23,310.76,276.08,336,272.67,350.22Z" style="fill:#00D9BE;stroke:#263238;stroke-linecap:round;stroke-linejoin:round"></path><path d="M255.69,295.76s6.66,13.56,2.85,34.87c-2.68,14.92-22.25,26.11-45.7,27.24-21.05,1-41.25-12.77-70.34-24.14S94.91,313,81.33,318.44a34.08,34.08,0,0,0-15.74,12.65,32.89,32.89,0,0,0-9.16-1.64s8-22.87,36.15-21.91,61.67,23.83,85.22,33a84.84,84.84,0,0,0,16,4.52c7.68,2.64,15.64,4.08,23.31,2.94,22.25-3.31,32.88-11.7,34.29-24.25a65.93,65.93,0,0,0-.5-17.74,46.8,46.8,0,0,0-1.05-5s-11.07.7-10.22-9.2a6.58,6.58,0,0,1,5.56-6.4,8.47,8.47,0,0,1,3-.13,8.88,8.88,0,0,1,7.5,10.28Z" style="fill:#263238;stroke:#263238;stroke-linecap:round;stroke-linejoin:round"></path><path d="M154.55,417.44s-5.13-3.71-1.26-7.92c5.39-5.87,13.52,1.09,11.3,7.67-2.52,7.47-14.38,8.33-18.51,3.05C140,412.5,144.35,398.56,158.2,397s59.27,7.57,76.51,4.06c23.14-4.71,21-19.38,16.89-23.66s-10.25-1.86-12,2.84c-1.83,4.86,3.33,8.35,6.55,7.92,2.85-.37,5.63-3.37,2.65-7.94" style="fill:none;stroke:#263238;stroke-linecap:round;stroke-linejoin:round;stroke-width:4px"></path><path d="M99.9,411.35s4,5,8.51,1.5,3.14-11.31-2-14-16,.8-16.63,12.79,11.65,20.36,28.26,20.16c20.4-.25,154.37-38.71,154.37-38.71s34.07-6.86,27.87-30.62c-2.81-10.77-11.55-11.88-17.59-19.44s-3.48-14.65,1.49-17.64,11.9-1.08,13,5.74-5.9,10.81-10.16,7.73c-3.24-2.34-4.22-8.38,2.28-9.4" style="fill:none;stroke:#263238;stroke-linecap:round;stroke-linejoin:round;stroke-width:4px"></path><path d="M255,292.86l0,.19s6.67,13.57,2.85,34.87c-2.67,14.93-22.24,26.12-45.69,27.24-21.06,1-41.26-12.77-70.35-24.14s-47.58-20.7-61.17-15.28-16.85,15.64-21.49,20.6-13.46,4.58-12.46-7c1.7-19.82,21-29.84,42.73-30.21S141.57,317,154.69,323s38.69,25.74,61.74,22.32c22.26-3.31,32.88-11.71,34.29-24.26a64.17,64.17,0,0,0-1.55-22.71s-11.07.7-10.21-9.21a6.57,6.57,0,0,1,5.55-6.4A8.82,8.82,0,0,1,255,292.86Z" style="fill:#fff;stroke:#263238;stroke-linecap:round;stroke-linejoin:round"></path></g><g id="freepik--Rope--inject-36"><path d="M670.25,194.58c-114.55,70.94-197.17,49.67-197.17,49.67C353.09,326,178,289.62,178,289.62s-6.09,31.08-.69,34,7.51-8.71,5.71-18.93-3.91-20.14-6.92-10.82-5.1,28.55-4.5,40.87" style="fill:none;stroke:#263238;stroke-linecap:round;stroke-linejoin:round;stroke-width:2px"></path><circle cx="473.08" cy="241.37" r="2.88" style="fill:none;stroke:#263238;stroke-linecap:round;stroke-linejoin:round;stroke-width:2px"></circle><path d="M675.42,192a2.88,2.88,0,1,0-2.88,2.88A2.88,2.88,0,0,0,675.42,192Z" style="fill:none;stroke:#263238;stroke-linecap:round;stroke-linejoin:round;stroke-width:2px"></path></g></svg>