<svg xmlns="http://www.w3.org/2000/svg" width="144" height="24" viewBox="0 0 144 24" fill="none">
<g clip-path="url(#clip0_64_8011)">
<g clip-path="url(#clip1_64_8011)">
<mask id="mask0_64_8011" style="mask-type:alpha" maskUnits="userSpaceOnUse" x="1" y="0" width="22" height="23">
<path d="M11.435 1.34737C11.6694 0.88356 12.3306 0.883559 12.565 1.34737L15.7338 7.61743C15.8178 7.78362 15.9704 7.90443 16.1512 7.94783L22.5138 9.47495C22.9911 9.5895 23.1625 10.1809 22.8207 10.5338L18.4722 15.0237C18.3356 15.1648 18.2719 15.3613 18.2999 15.5559L19.2641 22.2735C19.3366 22.7785 18.8148 23.1583 18.3578 22.9332L12.2794 19.9387C12.1032 19.8519 11.8968 19.8519 11.7206 19.9387L5.64219 22.9332C5.18526 23.1583 4.66347 22.7785 4.73595 22.2735L5.70016 15.5559C5.72809 15.3613 5.66443 15.1648 5.52781 15.0237L1.17925 10.5338C0.837482 10.1809 1.00892 9.5895 1.48619 9.47495L7.84882 7.94783C8.02963 7.90443 8.18227 7.78362 8.26626 7.61743L11.435 1.34737Z" fill="#3C4151"/>
</mask>
<g mask="url(#mask0_64_8011)">
<rect width="24" height="24" fill="#00dfc6"/>
</g>
</g>
</g>
<g clip-path="url(#clip2_64_8011)">
<g clip-path="url(#clip3_64_8011)">
<mask id="mask1_64_8011" style="mask-type:alpha" maskUnits="userSpaceOnUse" x="31" y="0" width="22" height="23">
<path d="M41.435 1.34737C41.6694 0.88356 42.3306 0.883559 42.565 1.34737L45.7338 7.61743C45.8178 7.78362 45.9704 7.90443 46.1512 7.94783L52.5138 9.47495C52.9911 9.5895 53.1625 10.1809 52.8207 10.5338L48.4722 15.0237C48.3356 15.1648 48.2719 15.3613 48.2999 15.5559L49.2641 22.2735C49.3366 22.7785 48.8148 23.1583 48.3578 22.9332L42.2794 19.9387C42.1032 19.8519 41.8968 19.8519 41.7206 19.9387L35.6422 22.9332C35.1853 23.1583 34.6635 22.7785 34.7359 22.2735L35.7002 15.5559C35.7281 15.3613 35.6644 15.1648 35.5278 15.0237L31.1793 10.5338C30.8375 10.1809 31.0089 9.5895 31.4862 9.47495L37.8488 7.94783C38.0296 7.90443 38.1823 7.78362 38.2663 7.61743L41.435 1.34737Z" fill="#3C4151"/>
</mask>
<g mask="url(#mask1_64_8011)">
<rect x="30" width="24" height="24" fill="#00dfc6"/>
</g>
</g>
</g>
<g clip-path="url(#clip4_64_8011)">
<g clip-path="url(#clip5_64_8011)">
<mask id="mask2_64_8011" style="mask-type:alpha" maskUnits="userSpaceOnUse" x="61" y="0" width="22" height="23">
<path d="M71.435 1.34737C71.6694 0.88356 72.3306 0.883559 72.565 1.34737L75.7338 7.61743C75.8178 7.78362 75.9704 7.90443 76.1512 7.94783L82.5138 9.47495C82.9911 9.5895 83.1625 10.1809 82.8207 10.5338L78.4722 15.0237C78.3356 15.1648 78.2719 15.3613 78.2999 15.5559L79.2641 22.2735C79.3366 22.7785 78.8148 23.1583 78.3578 22.9332L72.2794 19.9387C72.1032 19.8519 71.8968 19.8519 71.7206 19.9387L65.6422 22.9332C65.1853 23.1583 64.6635 22.7785 64.7359 22.2735L65.7002 15.5559C65.7281 15.3613 65.6644 15.1648 65.5278 15.0237L61.1793 10.5338C60.8375 10.1809 61.0089 9.5895 61.4862 9.47495L67.8488 7.94783C68.0296 7.90443 68.1823 7.78362 68.2663 7.61743L71.435 1.34737Z" fill="#3C4151"/>
</mask>
<g mask="url(#mask2_64_8011)">
<rect x="60" width="24" height="24" fill="#00dfc6"/>
</g>
</g>
</g>
<g clip-path="url(#clip6_64_8011)">
<g clip-path="url(#clip7_64_8011)">
<mask id="mask3_64_8011" style="mask-type:alpha" maskUnits="userSpaceOnUse" x="91" y="0" width="22" height="23">
<path d="M101.435 1.34737C101.669 0.88356 102.331 0.883559 102.565 1.34737L105.734 7.61743C105.818 7.78362 105.97 7.90443 106.151 7.94783L112.514 9.47495C112.991 9.5895 113.163 10.1809 112.821 10.5338L108.472 15.0237C108.336 15.1648 108.272 15.3613 108.3 15.5559L109.264 22.2735C109.337 22.7785 108.815 23.1583 108.358 22.9332L102.279 19.9387C102.103 19.8519 101.897 19.8519 101.721 19.9387L95.6422 22.9332C95.1853 23.1583 94.6635 22.7785 94.7359 22.2735L95.7002 15.5559C95.7281 15.3613 95.6644 15.1648 95.5278 15.0237L91.1793 10.5338C90.8375 10.1809 91.0089 9.5895 91.4862 9.47495L97.8488 7.94783C98.0296 7.90443 98.1823 7.78362 98.2663 7.61743L101.435 1.34737Z" fill="#3C4151"/>
</mask>
<g mask="url(#mask3_64_8011)">
<rect x="90" width="24" height="24" fill="#00dfc6"/>
</g>
</g>
</g>
<g clip-path="url(#clip8_64_8011)">
<g clip-path="url(#clip9_64_8011)">
<mask id="mask4_64_8011" style="mask-type:alpha" maskUnits="userSpaceOnUse" x="121" y="0" width="22" height="23">
<path d="M131.435 1.34737C131.669 0.88356 132.331 0.883559 132.565 1.34737L135.734 7.61743C135.818 7.78362 135.97 7.90443 136.151 7.94783L142.514 9.47495C142.991 9.5895 143.163 10.1809 142.821 10.5338L138.472 15.0237C138.336 15.1648 138.272 15.3613 138.3 15.5559L139.264 22.2735C139.337 22.7785 138.815 23.1583 138.358 22.9332L132.279 19.9387C132.103 19.8519 131.897 19.8519 131.721 19.9387L125.642 22.9332C125.185 23.1583 124.663 22.7785 124.736 22.2735L125.7 15.5559C125.728 15.3613 125.664 15.1648 125.528 15.0237L121.179 10.5338C120.837 10.1809 121.009 9.5895 121.486 9.47495L127.849 7.94783C128.03 7.90443 128.182 7.78362 128.266 7.61743L131.435 1.34737Z" fill="#3C4151"/>
</mask>
<g mask="url(#mask4_64_8011)">
<rect x="120" width="24" height="24" fill="#00dfc6"/>
</g>
</g>
</g>
<defs>
<clipPath id="clip0_64_8011">
<rect width="24" height="24" fill="white"/>
</clipPath>
<clipPath id="clip1_64_8011">
<rect width="24" height="24" fill="white"/>
</clipPath>
<clipPath id="clip2_64_8011">
<rect width="24" height="24" fill="white" transform="translate(30)"/>
</clipPath>
<clipPath id="clip3_64_8011">
<rect width="24" height="24" fill="white" transform="translate(30)"/>
</clipPath>
<clipPath id="clip4_64_8011">
<rect width="24" height="24" fill="white" transform="translate(60)"/>
</clipPath>
<clipPath id="clip5_64_8011">
<rect width="24" height="24" fill="white" transform="translate(60)"/>
</clipPath>
<clipPath id="clip6_64_8011">
<rect width="24" height="24" fill="white" transform="translate(90)"/>
</clipPath>
<clipPath id="clip7_64_8011">
<rect width="24" height="24" fill="white" transform="translate(90)"/>
</clipPath>
<clipPath id="clip8_64_8011">
<rect width="24" height="24" fill="white" transform="translate(120)"/>
</clipPath>
<clipPath id="clip9_64_8011">
<rect width="24" height="24" fill="white" transform="translate(120)"/>
</clipPath>
</defs>
</svg>